<svg width="30" height="30" fill="current" xmlns="http://www.w3.org/2000/svg"><path d="M26.25 18.75v3.75H30V25h-3.75v3.75h-2.5V25H20v-2.5h3.75v-3.75h2.5Zm.01-15c.685 0 1.24.55625 1.24 1.24125V16.25H25v-10H5v17.4988L17.5 11.25 21.25 15v3.5363l-3.75-3.75L8.53375 23.75H17.5v2.5H3.74c-.32898-.0003-.64438-.1313-.87689-.364S2.5 25.3377 2.5 25.0087V4.99125c.00229-.32828.13363-.64248.36564-.87473.23202-.23225.54609-.3639.87436-.36652h22.52ZM10 8.75c.663 0 1.2989.26339 1.7678.73223.4688.46884.7322 1.10477.7322 1.76777s-.2634 1.2989-.7322 1.7678c-.4689.4688-1.1048.7322-1.7678.7322-.66304 0-1.29893-.2634-1.76777-.7322C7.76339 12.5489 7.5 11.913 7.5 11.25s.26339-1.29893.73223-1.76777C8.70107 9.01339 9.33696 8.75 10 8.75Z"/></svg>