<svg width="28" height="28" viewBox="0 0 28 28" fill="current" xmlns="http://www.w3.org/2000/svg">
<path d="M20.25 7.6H26V9.9H23.7V24.85C23.7 25.155 23.5788 25.4475 23.3632 25.6632C23.1475 25.8788 22.855 26 22.55 26H6.45C6.145 26 5.85249 25.8788 5.63683 25.6632C5.42116 25.4475 5.3 25.155 5.3 24.85V9.9H3V7.6H8.75V4.15C8.75 3.845 8.87116 3.55249 9.08683 3.33683C9.30249 3.12116 9.595 3 9.9 3H19.1C19.405 3 19.6975 3.12116 19.9132 3.33683C20.1288 3.55249 20.25 3.845 20.25 4.15V7.6ZM21.4 9.9H7.6V23.7H21.4V9.9ZM11.05 5.3V7.6H17.95V5.3H11.05Z" fill="current"/>
</svg>
