<svg width="28" height="28" fill="current" xmlns="http://www.w3.org/2000/svg"><path d="M19.675 4C23.1687 4 26 6.83784 26 10.8108 26 18.7568 17.375 23.2973 14.5 25 11.625 23.2973 3 18.7568 3 10.8108 3 6.83784 5.875 4 9.325 4c2.139 0 4.025 1.13514 5.175 2.27027C15.65 5.13514 17.536 4 19.675 4Zm-4.1009 17.7126c1.0131-.6311 1.9274-1.2588 2.783-1.9308 3.4281-2.6903 5.3429-5.6303 5.3429-8.971 0-2.67891-1.7676-4.54053-4.025-4.54053-1.2374 0-2.576.64703-3.5489 1.60508L14.5 9.48043l-1.6261-1.60508c-.9729-.95805-2.3115-1.60508-3.5489-1.60508-2.231 0-4.025 1.87978-4.025 4.54053 0 3.3418 1.9159 6.2807 5.3418 8.971.8567.672 1.7709 1.2997 2.7841 1.9297.3438.2146.6842.42 1.0741.6493.3898-.2293.7302-.4347 1.0741-.6482Z"/></svg>