<svg width="28" height="28" fill="current" xmlns="http://www.w3.org/2000/svg"><path d="m15.8764 20.2755-4.8621-2.6331c-.6348.6739-1.45903 1.1426-2.36559 1.3452-.90655.2026-1.85352.1297-2.71784-.2091-.86431-.3389-1.606-.928-2.12869-1.6909C3.2795 16.3247 3 15.4233 3 14.5006c0-.9227.2795-1.8241.80218-2.587.52269-.7629 1.26438-1.3521 2.12869-1.6909.86432-.33887 1.81129-.41172 2.71784-.2091.90656.2026 1.73079.6713 2.36559 1.3451l4.8633-2.63304c-.2761-1.08533-.1441-2.2334.3713-3.229.5153-.9956 1.3787-1.77038 2.4282-2.17912 1.0495-.40873 2.2131-.42335 3.2727-.04112s1.9424 1.13507 2.483 2.1174c.5405.98233.7018 2.12672.4534 3.21864-.2484 1.09192-.8892 2.05644-1.8025 2.71274-.9133.6562-2.0363.9592-3.1584.8522-1.1222-.1071-2.1665-.6169-2.9372-1.4338l-4.8634 2.633c.1867.7375.1867 1.5093 0 2.2468l4.8622 2.633c.7707-.8169 1.815-1.3267 2.9372-1.4338 1.1222-.107 2.2451.196 3.1584.8522.9133.6563 1.5542 1.6208 1.8025 2.7127.2484 1.092.0872 2.2363-.4534 3.2187-.5406.9823-1.4234 1.7352-2.483 2.1174-1.0596.3822-2.2232.3676-3.2727-.0411-1.0495-.4088-1.9128-1.1836-2.4282-2.1792-.5154-.9956-.6474-2.1436-.3713-3.229v.0012Zm-8.24443-3.4759c.6142 0 1.20325-.2423 1.63756-.6735.43431-.4313.6783-1.0162.6783-1.6261 0-.6099-.24399-1.1948-.6783-1.6261-.43431-.4312-1.02336-.6735-1.63756-.6735-.61421 0-1.20326.2423-1.63757.6735-.43431.4313-.6783 1.0162-.6783 1.6261 0 .6099.24399 1.1948.6783 1.6261.43431.4312 1.02336.6735 1.63757.6735ZM20.3692 9.90077c.6142 0 1.2033-.24228 1.6376-.67354.4343-.43127.6783-1.01618.6783-1.62608 0-.6099-.244-1.19481-.6783-1.62607-.4343-.43127-1.0234-.67355-1.6376-.67355-.6142 0-1.2032.24228-1.6375.67355-.4344.43126-.6783 1.01617-.6783 1.62607 0 .6099.2439 1.19481.6783 1.62608.4343.43126 1.0233.67354 1.6375.67354Zm0 13.79773c.6142 0 1.2033-.2423 1.6376-.6736.4343-.4312.6783-1.0162.6783-1.6261 0-.6098-.244-1.1948-.6783-1.626-.4343-.4313-1.0234-.6736-1.6376-.6736-.6142 0-1.2032.2423-1.6375.6736-.4344.4312-.6783 1.0162-.6783 1.626 0 .6099.2439 1.1949.6783 1.6261.4343.4313 1.0233.6736 1.6375.6736Z"/></svg>