<?xml version="1.0" encoding="utf-8"?>
<!-- Generator: Adobe Illustrator 26.0.2, SVG Export Plug-In . SVG Version: 6.00 Build 0)  -->
<svg version="1.1" id="Layer_1" xmlns="http://www.w3.org/2000/svg" xmlns:xlink="http://www.w3.org/1999/xlink" x="0px" y="0px"
	 viewBox="0 0 1920 1080" style="enable-background:new 0 0 1920 1080;" xml:space="preserve">
<style type="text/css">
	.st0{fill:#FFE330;stroke:#000000;stroke-width:2;stroke-miterlimit:10;}
</style>
<g>
	<path class="st0" d="M1809.09,489.53L1809.09,489.53c0-29.89-24.46-54.35-54.35-54.35h-176.31c-29.89,0-54.35,24.46-54.35,54.35
		l0,0c0,29.89,24.46,54.35,54.35,54.35h176.31c2.38,0,4.72-0.17,7.02-0.47l44.62,19.31l-14.54-33.59
		C1802.44,519.2,1809.09,505.11,1809.09,489.53z"/>
	<g>
		<path d="M1599.7,478.14h8.51l2.04-5.64h5l-2.04,5.64h7.3l2.04-5.64h5l-2.04,5.64h4.99v4.31h-6.5l-2.12,5.87h7.11v4.31h-8.63
			l-2.27,6.36h-5l2.27-6.36h-7.3l-2.27,6.36h-5l2.27-6.36h-4.88v-4.31h6.4l2.12-5.87h-7V478.14z M1609.58,488.32h7.3l2.12-5.87h-7.3
			L1609.58,488.32z"/>
		<path d="M1633.72,482.38h13.96v-1.63h-11.28v-10.07h28.31v10.07h-11.35v1.63h14.04v3.78h-33.68V482.38z M1659.27,492.75v-1.66
			h-22.89v-3.44h28.19v8.33h-22.89v1.66h24.14v3.44h-29.44v-8.33H1659.27z M1641.63,476.89h17.86v-2.35h-17.86V476.89z"/>
		<path d="M1683.71,491.84h-5.18v-7.83l6.02-0.19c1.21-0.05,2.23-0.18,3.05-0.38c0.82-0.2,1.48-0.47,1.97-0.81s0.84-0.74,1.04-1.21
			c0.2-0.47,0.3-0.97,0.3-1.49v-1.29c0-1.29-0.64-2.19-1.93-2.72s-3.14-0.79-5.56-0.79h-1.29c-1.89,0-3.69,0.18-5.39,0.55
			c-1.7,0.37-3.39,0.76-5.05,1.19l-1.36-4.28c1.77-0.43,3.57-0.83,5.41-1.19c1.84-0.37,3.9-0.55,6.17-0.55h1.17
			c4.26,0,7.49,0.68,9.69,2.04c2.19,1.36,3.29,3.27,3.29,5.71v1.29c0,1.21-0.18,2.3-0.53,3.27s-0.92,1.81-1.7,2.52
			c-0.78,0.71-1.81,1.26-3.08,1.65c-1.27,0.39-2.82,0.61-4.64,0.66l-2.38,0.08v3.77H1683.71z M1678.15,494.57h5.94v5.68h-5.94
			V494.57z"/>
		<path d="M1714.4,500.77v-6.55h-14v-3.97h33.6v3.97h-13.93v6.55H1714.4z M1725.79,477.65v-2.42h-22.4v-3.97h27.63v10.14h-22.4v2.46
			h23.46l0.07,3.97h-28.76v-10.18H1725.79z"/>
	</g>
</g>
</svg>
