<?xml version="1.0" encoding="utf-8"?>
<!-- Generator: Adobe Illustrator 26.0.2, SVG Export Plug-In . SVG Version: 6.00 Build 0)  -->
<svg version="1.1" id="Layer_1" xmlns="http://www.w3.org/2000/svg" xmlns:xlink="http://www.w3.org/1999/xlink" x="0px" y="0px"
	 viewBox="0 0 1920 1080" style="enable-background:new 0 0 1920 1080;" xml:space="preserve">
<style type="text/css">
	.st0{fill:#FF8E00;}
</style>
<g>
	<g>
		<path class="st0" d="M232.08,878.86l-0.47-0.48c-9.75-10.04-15.12-23.22-15.12-37.1c0-29.42,23.93-53.35,53.35-53.35h202.68
			c29.42,0,53.35,23.93,53.35,53.35s-23.93,53.35-53.35,53.35H269.84c-3.22,0-6.5-0.31-9.75-0.92l-0.3-0.06l-41.96,18.16
			L232.08,878.86z"/>
		<path d="M472.52,788.94c28.86,0,52.35,23.48,52.35,52.35c0,28.86-23.48,52.35-52.35,52.35H269.84c-3.16,0-6.38-0.3-9.57-0.9
			l-0.6-0.11l-0.56,0.24l-39.37,17.04l12.99-30.02l0.53-1.23l-0.93-0.96c-9.57-9.86-14.84-22.78-14.84-36.4
			c0-28.86,23.48-52.35,52.35-52.35L472.52,788.94 M472.52,786.94H269.84c-29.89,0-54.35,24.46-54.35,54.35l0,0
			c0,14.66,5.89,28,15.41,37.8l-15,34.66l44-19.04c3.22,0.6,6.54,0.93,9.94,0.93h202.68c29.89,0,54.35-24.46,54.35-54.35l0,0
			C526.87,811.39,502.41,786.94,472.52,786.94L472.52,786.94z"/>
	</g>
	<g>
		<path d="M286.75,829.89h8.51l2.04-5.64h5l-2.04,5.64h7.3l2.04-5.64h5l-2.04,5.64h4.99v4.31h-6.51l-2.12,5.87h7.11v4.31h-8.63
			l-2.27,6.36h-5l2.27-6.36h-7.3l-2.27,6.36h-5l2.27-6.36h-4.88v-4.31h6.4l2.12-5.87h-7v-4.31H286.75z M296.63,840.07h7.3l2.12-5.87
			h-7.3L296.63,840.07z"/>
		<path d="M326.9,850.37h-5.15v-27.74h5.15V850.37z M349.8,850.37h-6.89l-14.76-10.97l13.47-9.84h6.89v0.34l-12.98,9.5l14.27,10.63
			L349.8,850.37L349.8,850.37z"/>
		<path d="M379.54,848.13c0,3-1.2,5.27-3.61,6.79c-2.41,1.53-6.24,2.29-11.49,2.29c-0.88,0-1.79-0.03-2.72-0.08
			s-1.86-0.13-2.78-0.25c-0.92-0.11-1.82-0.25-2.69-0.4s-1.68-0.33-2.44-0.53l-1.1-4.58c1.59,0.48,3.37,0.86,5.34,1.13
			c1.97,0.28,4.1,0.42,6.4,0.42c1.89,0,3.48-0.1,4.75-0.3s2.3-0.51,3.07-0.93c0.77-0.42,1.32-0.94,1.65-1.57s0.49-1.36,0.49-2.2
			v-2.5c-1.31,1.03-2.74,1.83-4.28,2.38c-1.54,0.56-3.18,0.83-4.92,0.83h-0.95c-1.92,0-3.65-0.16-5.2-0.47
			c-1.55-0.32-2.88-0.82-3.97-1.51c-1.1-0.69-1.94-1.6-2.54-2.71c-0.59-1.11-0.89-2.47-0.89-4.09v-1.36c0-1.61,0.3-3.01,0.89-4.2
			c0.59-1.19,1.44-2.18,2.54-2.97s2.42-1.39,3.97-1.78s3.29-0.59,5.2-0.59h0.95c2.14,0,3.99,0.32,5.52,0.97
			c1.54,0.64,2.76,1.51,3.67,2.59v-2.99h5.15L379.54,848.13L379.54,848.13z M356.84,839.85c0,0.91,0.17,1.65,0.51,2.23
			c0.34,0.58,0.83,1.04,1.46,1.38s1.4,0.58,2.31,0.72c0.91,0.14,1.92,0.21,3.03,0.21h1.06c1.03,0,1.96-0.06,2.78-0.19
			s1.59-0.34,2.31-0.64s1.41-0.69,2.06-1.17c0.66-0.48,1.34-1.07,2.04-1.78v-2.99c-1.01-1.29-2.31-2.33-3.9-3.14
			s-3.36-1.21-5.3-1.21h-1.06c-2.25,0-4.02,0.43-5.34,1.29c-1.31,0.86-1.97,2.2-1.97,4.01L356.84,839.85L356.84,839.85z"/>
		<path d="M384.73,838.29v-15.21h5.22v4.2h10.75v-4.2h5.22v15.21H384.73z M386.35,840.83h28.87v3.97h-23.58v3.71h23.69v3.97h-28.99
			L386.35,840.83L386.35,840.83z M400.7,834.32v-3.33h-10.75v3.33H400.7z M420.22,833.03h-5.07v5l-5.3,1.4v-16.69h5.3v5.52h5.07
			V833.03z"/>
		<path d="M441,845.48l-9.88,2.23h-7.8v-23.65h5.37v19.34h2.46l9.84-2.12v4.2H441z M442.66,852.56v-16.2h-7.8v-4.47h7.8v-9.16h5.11
			v28.04L442.66,852.56z M450.99,852.56v-29.82h5.11v28.04L450.99,852.56z"/>
	</g>
</g>
</svg>
