<?xml version="1.0" encoding="utf-8"?>
<!-- Generator: Adobe Illustrator 26.0.2, SVG Export Plug-In . SVG Version: 6.00 Build 0)  -->
<svg version="1.1" id="Layer_1" xmlns="http://www.w3.org/2000/svg" xmlns:xlink="http://www.w3.org/1999/xlink" x="0px" y="0px"
	 viewBox="0 0 1920 1080" style="enable-background:new 0 0 1920 1080;" xml:space="preserve">
<style type="text/css">
	.st0{fill:#FF8E00;}
</style>
<g>
	<g>
		<path class="st0" d="M1575.44,423.14c-29.42,0-53.35-23.93-53.35-53.35s23.93-53.35,53.35-53.35h181.35
			c29.42,0,53.35,23.93,53.35,53.35s-23.93,53.35-53.35,53.35H1575.44z"/>
		<g>
			<path d="M1756.79,317.44c28.86,0,52.35,23.48,52.35,52.35c0,28.86-23.48,52.35-52.35,52.35h-181.35
				c-28.86,0-52.35-23.48-52.35-52.35s23.48-52.35,52.35-52.35H1756.79 M1756.79,315.44h-181.35c-29.89,0-54.35,24.46-54.35,54.35
				l0,0c0,29.89,24.46,54.35,54.35,54.35h181.35c29.89,0,54.35-24.46,54.35-54.35l0,0C1811.14,339.9,1786.68,315.44,1756.79,315.44
				L1756.79,315.44z"/>
		</g>
	</g>
	<g>
		<path d="M1581.73,358.4h8.51l2.04-5.64h5l-2.04,5.64h7.3l2.04-5.64h5l-2.04,5.64h5v4.31h-6.51l-2.12,5.87h7.11v4.31h-8.63
			l-2.27,6.36h-5l2.27-6.36h-7.3l-2.27,6.36h-5l2.27-6.36h-4.88v-4.31h6.4l2.12-5.87h-7V358.4z M1591.61,368.58h7.3l2.12-5.87h-7.3
			L1591.61,368.58z"/>
		<path d="M1636.75,368.28h-20.89v-16.65h20.89V368.28z M1617.68,371.08h5.68v5.64h23.95v3.97h-29.63V371.08z M1621.08,364.3h10.44
			v-8.7h-10.44V364.3z M1651.36,363.55h-5.07v7.91l-5.3,1.4v-21.61h5.3v7.53h5.07V363.55z"/>
		<path d="M1653.71,368.84v-17.26h5.22v5.49h10.75v-5.49h5.22v17.26H1653.71z M1655.33,371.23h5.68v5.49h23.95v3.97h-29.63V371.23z
			 M1669.67,364.87v-4.09h-10.75v4.09H1669.67z M1689.2,363.55h-5.07v7.91l-5.3,1.4v-21.61h5.3v7.53h5.07V363.55z"/>
		<path d="M1713.34,355.71h-8.17v1.4l9.08,4.69l-2.04,3.78l-9.88-4.92l-10.07,5.56l-2.5-3.78l9.5-5.22v-1.51h-8.17v-4.09h22.25
			L1713.34,355.71L1713.34,355.71z M1716.64,372.14v-1.55h-23.65v-3.71h28.95v8.74h-23.65v1.63h24.9v3.71h-30.2v-8.82H1716.64z
			 M1727.04,360.22h-5.07v4.24l-5.3,1.4v-14.61h5.3v4.2h5.07V360.22z"/>
		<path d="M1743.2,381.07v-7.42h-13.85v-3.97h33.6v3.97h-14.08v7.42H1743.2z M1731.96,366.95V351.4h5.22v4.2h18.35v-4.2h5.22v15.55
			L1731.96,366.95L1731.96,366.95z M1755.54,362.98v-3.41h-18.35v3.41H1755.54z"/>
	</g>
</g>
</svg>
