<?xml version="1.0" encoding="utf-8"?>
<!-- Generator: Adobe Illustrator 26.0.2, SVG Export Plug-In . SVG Version: 6.00 Build 0)  -->
<svg version="1.1" id="Layer_1" xmlns="http://www.w3.org/2000/svg" xmlns:xlink="http://www.w3.org/1999/xlink" x="0px" y="0px"
	 viewBox="0 0 1920 1080" style="enable-background:new 0 0 1920 1080;" xml:space="preserve">
<style type="text/css">
	.st0{fill:#FF8E00;}
</style>
<g>
	<g>
		<path class="st0" d="M929.27,287.06l-0.29,0.05c-2.78,0.44-5.6,0.67-8.38,0.67H686.83c-29.42,0-53.35-23.93-53.35-53.35
			s23.93-53.35,53.35-53.35h233.78c29.42,0,53.35,23.93,53.35,53.35c0,13.75-5.29,26.84-14.89,36.85l-0.46,0.48l14.91,34.45
			L929.27,287.06z"/>
		<path d="M920.61,182.08c28.86,0,52.35,23.48,52.35,52.35c0,13.49-5.19,26.33-14.61,36.16l-0.92,0.96l0.53,1.22l13.64,31.52
			l-41.66-18.03l-0.53-0.23l-0.58,0.09c-2.73,0.44-5.49,0.66-8.22,0.66H686.83c-28.86,0-52.35-23.48-52.35-52.35
			c0-28.86,23.48-52.35,52.35-52.35L920.61,182.08 M920.61,180.08H686.83c-29.89,0-54.35,24.46-54.35,54.35l0,0
			c0,29.89,24.46,54.35,54.35,54.35h233.78c2.9,0,5.75-0.24,8.53-0.68l46.29,20.03l-15.65-36.16c9.37-9.78,15.17-23.01,15.17-37.54
			l0,0C974.96,204.54,950.5,180.08,920.61,180.08L920.61,180.08z"/>
	</g>
	<g>
		<path d="M713.37,224.59h8.51l2.04-5.64h5l-2.04,5.64h7.3l2.04-5.64h5l-2.04,5.64h5v4.31h-6.51l-2.12,5.87h7.11v4.31h-8.63
			l-2.27,6.36h-5l2.27-6.36h-7.3l-2.27,6.36h-5l2.27-6.36h-4.88v-4.31h6.4l2.12-5.87h-7V224.59z M723.25,234.77h7.3l2.12-5.87h-7.3
			L723.25,234.77z"/>
		<path d="M765.06,243.59h-5.26l2.84-20.66H746.9v-3.97h21.42L765.06,243.59z M783,233.26h-5.07v12.26l-5.22,1.78v-29.86h5.22v11.05
			H783V233.26z"/>
		<path d="M785.31,241.47h13.77v-5.45H787.5v-17.67h5.22v5.22h18.77v-5.22h5.22v17.67h-11.96v5.45h14.15v3.97h-33.6v-3.97H785.31z
			 M811.49,232.05v-4.5h-18.77v4.5H811.49z"/>
		<path d="M845.06,223.04h-8.36v6.85l9.38,9.92l-3.33,3.22l-8.82-9.04l-8.74,9.69l-3.71-3.18l9.54-10.44v-7h-8.4v-4.09h22.44
			L845.06,223.04L845.06,223.04z M858.68,233.26h-5.07v12.26l-5.22,1.78v-29.86h5.22v11.05h5.07V233.26z"/>
		<path d="M860.99,241.36h11.28V228.6h5.3v12.75h17.03v3.97H861v-3.96H860.99z M884.42,237.27l1.63-14.8h-22.14v-3.97h27.66
			l-2.12,18.77H884.42z"/>
	</g>
</g>
</svg>
