<?xml version="1.0" encoding="utf-8"?>
<!-- Generator: Adobe Illustrator 26.0.2, SVG Export Plug-In . SVG Version: 6.00 Build 0)  -->
<svg version="1.1" id="Layer_1" xmlns="http://www.w3.org/2000/svg" xmlns:xlink="http://www.w3.org/1999/xlink" x="0px" y="0px"
	 viewBox="0 0 1920 1080" style="enable-background:new 0 0 1920 1080;" xml:space="preserve">
<style type="text/css">
	.st0{fill:#00A0FF;}
</style>
<g>
	<g>
		<path class="st0" d="M560.96,362.21c-29.42,0-53.35-23.93-53.35-53.35s23.93-53.35,53.35-53.35h171.69
			c29.42,0,53.35,23.93,53.35,53.35s-23.93,53.35-53.35,53.35H560.96z"/>
		<g>
			<path d="M732.66,256.52c28.86,0,52.35,23.48,52.35,52.35c0,28.86-23.48,52.35-52.35,52.35h-171.7
				c-28.86,0-52.35-23.48-52.35-52.35c0-28.86,23.48-52.35,52.35-52.35H732.66 M732.66,254.52h-171.7
				c-29.89,0-54.35,24.46-54.35,54.35l0,0c0,29.89,24.46,54.35,54.35,54.35h171.69c29.89,0,54.35-24.46,54.35-54.35l0,0
				C787,278.98,762.55,254.52,732.66,254.52L732.66,254.52z"/>
		</g>
	</g>
	<g>
		<path d="M575.38,297.48h8.51l2.04-5.64h5l-2.04,5.64h7.3l2.04-5.64h5l-2.04,5.64h5v4.31h-6.51l-2.12,5.87h7.11v4.31h-8.63
			l-2.27,6.36h-5l2.27-6.36h-7.3l-2.27,6.36h-5l2.27-6.36h-4.88v-4.31h6.4l2.12-5.87h-7V297.48z M585.26,307.66h7.3l2.12-5.87h-7.3
			L585.26,307.66z"/>
		<path d="M633.21,296.08h-4.12c0.81,0.58,1.41,1.23,1.82,1.95c0.4,0.72,0.61,1.46,0.61,2.21v0.23c0,2.14-0.91,3.82-2.72,5.03
			c-1.82,1.21-4.43,1.82-7.83,1.82c-3.53,0-6.17-0.62-7.93-1.85c-1.75-1.24-2.63-2.9-2.63-5v-0.23c0-0.76,0.18-1.49,0.55-2.21
			s0.95-1.37,1.76-1.95h-4.05v-3.9h9.27v-3.37h6.17v3.37h9.12v3.9H633.21z M612.92,308.68h28.87v11.39h-28.87V308.68z
			 M615.69,300.35c0,0.93,0.42,1.67,1.27,2.2c0.84,0.53,2.18,0.79,3.99,0.79c1.82,0,3.15-0.26,3.99-0.78
			c0.84-0.52,1.27-1.26,1.27-2.21c0-0.98-0.41-1.73-1.23-2.23s-2.16-0.76-4.03-0.76c-1.87,0-3.21,0.25-4.03,0.76
			C616.1,298.63,615.69,299.37,615.69,300.35z M636.5,312.65h-18.28v3.44h18.28V312.65z M636.54,307.32v-16.99h5.3v15.59
			L636.54,307.32z"/>
		<path d="M647.25,303.15h33.68v3.97h-14.08v2.19h11.77v10.75h-28.87v-10.75h11.43v-2.19h-13.93V303.15z M651.52,302.06l-2.38-4.09
			l11.96-5.64v-2.95h6.13v2.99l12,5.18l-1.78,4.01l-13.24-5.41L651.52,302.06z M673.32,313.3h-18.28v2.8h18.28V313.3z"/>
		<path d="M696.86,294.71h-2.08v5.07l2.61,2.76l2.65-2.69v-5.15h-2.12v-3.97h11.54v3.97h-4.2v5.07l5.34,5.22l-2.99,3.33l-5.11-4.73
			l-5.11,4.58l-5.07-4.58l-4.96,5.18l-3.37-3.1l5.56-5.9v-5.07h-4.5v-3.97h11.81V294.71z M688.57,309.7h5.68v6.09h23.95v3.97h-29.63
			V309.7z M712.22,312.31v-21.99h5.3v20.59L712.22,312.31z"/>
	</g>
</g>
</svg>
