<?xml version="1.0" encoding="utf-8"?>
<!-- Generator: Adobe Illustrator 26.0.2, SVG Export Plug-In . SVG Version: 6.00 Build 0)  -->
<svg version="1.1" id="Layer_1" xmlns="http://www.w3.org/2000/svg" xmlns:xlink="http://www.w3.org/1999/xlink" x="0px" y="0px"
	 viewBox="0 0 1920 1080" style="enable-background:new 0 0 1920 1080;" xml:space="preserve">
<style type="text/css">
	.st0{fill:#00A0FF;}
</style>
<g>
	<g>
		<path class="st0" d="M1644.01,956.22c-29.42,0-53.35-23.93-53.35-53.35s23.93-53.35,53.35-53.35h265
			c29.42,0,53.35,23.93,53.35,53.35s-23.93,53.35-53.35,53.35H1644.01z"/>
		<g>
			<path d="M1909.01,850.53c28.86,0,52.35,23.48,52.35,52.35c0,28.86-23.48,52.35-52.35,52.35h-265
				c-28.86,0-52.35-23.48-52.35-52.35c0-28.86,23.48-52.35,52.35-52.35H1909.01 M1909.01,848.53h-265
				c-29.89,0-54.35,24.46-54.35,54.35l0,0c0,29.89,24.46,54.35,54.35,54.35h265c29.89,0,54.35-24.46,54.35-54.35l0,0
				C1963.36,872.99,1938.9,848.53,1909.01,848.53L1909.01,848.53z"/>
		</g>
	</g>
	<g>
		<path d="M1686.16,891.49h8.51l2.04-5.64h5l-2.04,5.64h7.3l2.04-5.64h5l-2.04,5.64h5v4.31h-6.51l-2.12,5.87h7.11v4.31h-8.63
			l-2.27,6.36h-5l2.27-6.36h-7.3l-2.27,6.36h-5l2.27-6.36h-4.88v-4.31h6.4l2.12-5.87h-7V891.49z M1696.04,901.67h7.3l2.12-5.87h-7.3
			L1696.04,901.67z"/>
		<path d="M1747.77,914.19v-14.15h-4.96c-0.13,3.36-1.16,5.95-3.1,7.78s-4.68,2.74-8.21,2.74h-0.5c-1.84,0-3.47-0.27-4.88-0.79
			c-1.41-0.53-2.61-1.29-3.58-2.29s-1.7-2.21-2.2-3.65c-0.49-1.44-0.74-3.05-0.74-4.84v-2.38c0-1.77,0.25-3.36,0.74-4.79
			c0.49-1.42,1.22-2.64,2.2-3.65c0.97-1.01,2.16-1.78,3.58-2.33c1.41-0.54,3.04-0.81,4.88-0.81h0.49c1.69,0,3.2,0.23,4.52,0.7
			c1.32,0.47,2.47,1.14,3.43,2.01c0.96,0.87,1.71,1.92,2.27,3.16s0.91,2.62,1.06,4.16h4.99v-10.71h5.22v28.08L1747.77,914.19z
			 M1737.63,896.9c0-1.34-0.16-2.49-0.47-3.46c-0.32-0.97-0.75-1.77-1.31-2.38s-1.22-1.07-1.99-1.36s-1.6-0.44-2.48-0.44h-0.3
			c-0.86,0-1.67,0.14-2.42,0.42c-0.76,0.28-1.42,0.73-1.99,1.34c-0.57,0.62-1.02,1.41-1.34,2.38c-0.33,0.97-0.49,2.14-0.49,3.5v1.78
			c0,1.34,0.16,2.49,0.47,3.44c0.32,0.96,0.75,1.74,1.31,2.35c0.55,0.61,1.22,1.05,1.99,1.34c0.77,0.29,1.6,0.44,2.48,0.44h0.3
			c0.91,0,1.75-0.15,2.52-0.44s1.43-0.74,1.99-1.34c0.56-0.61,0.98-1.39,1.29-2.35c0.3-0.96,0.45-2.11,0.45-3.44v-1.78H1737.63z"/>
		<path d="M1770.62,884.37h11.58v3.97h-4.2v3.18l5.3,4.39l-2.72,3.33l-5.34-4.28l-5.11,4.13l-5.07-4.09l-5.3,4.35l-3.14-3.1
			l5.68-4.77v-3.14h-4.5v-3.97h11.77v3.97h-2.04v3.1l2.61,2.31l2.65-2.23v-3.18h-2.16v-3.97H1770.62z M1785.5,905.49v-1.44h-23.65
			v-3.71h28.95v8.48h-23.65v1.51h24.9v3.71h-30.2v-8.55H1785.5z M1785.53,899.32v-6.09h-4.09v-4.47h4.09v-4.39h5.3v13.43
			L1785.53,899.32z"/>
		<path d="M1822.7,914.19v-7.04l-15.4,2.84h-10.48v-24.37h19.49v3.97h-14.12v5.64h13.62v3.97h-13.62v6.62h5.15l15.36-2.72v-18.77
			h5.22v28.08L1822.7,914.19z"/>
		<path d="M1834.77,909.42v-24.03h5.22v8.82h10.94v-8.82h5.22v24.03H1834.77z M1850.93,905.45v-7.27h-10.94v7.27H1850.93z
			 M1860.92,914.19v-29.86h5.22v28.08L1860.92,914.19z"/>
	</g>
</g>
</svg>
