<svg width="24" height="24" fill="current" xmlns="http://www.w3.org/2000/svg"><path d="M7.31 3.49997c-.70963-.03-1.4025.22083-1.92848.69814-.52598.47731-.84269 1.14266-.88152 1.85186V18c.05135.7003.37349 1.353.8981 1.8197.5246.4668 1.21039.7108 1.9119.6803H19.5v-1.7H7.31c-.22543 0-.44163-.0896-.60104-.249S6.46 18.1754 6.46 17.95c0-.2255.08955-.4417.24896-.6011S7.08457 17.1 7.31 17.1H19.5V3.49997H7.31Zm0 1.7h2.81V12.1l1.48-.93 1.34-.86 2.81 1.79V5.19997h1.87V15.4H7.31c-.31675.0011-.63109.0551-.93.16V6.04997c.00381-.11735.03106-.23275.08015-.3394.0491-.10665.11903-.2024.2057-.28161.08666-.07921.1883-.14028.29893-.1796.11063-.03933.228-.05612.34522-.04939Zm4.69 0h1.88v3.64l-.94-.6-.94.6v-3.64Z"/></svg>