<svg width="24" height="24" fill="current" xmlns="http://www.w3.org/2000/svg"><path d="M12 2.99979c-2.45276-.06454-4.83087.84702-6.61208 2.53447C3.60672 7.22172 2.56804 9.54712 2.5 11.9998c.06804 2.4527 1.10672 4.7781 2.88792 6.4655C7.16913 20.1528 9.54724 21.0643 12 20.9998c2.4528.0645 4.8309-.847 6.6121-2.5345 1.7812-1.6874 2.8199-4.0128 2.8879-6.4655-.068-2.45268-1.1067-4.77808-2.8879-6.46554C16.8309 3.84681 14.4528 2.93525 12 2.99979ZM7.32 17.6498c.41-.81 2.89-1.6 4.68-1.6 1.79 0 4.28.79 4.68 1.6-1.3527 1.0065-2.9939 1.5501-4.68 1.5501-1.6861 0-3.32727-.5436-4.68-1.5501Zm10.68-1.3c-1.36-1.57-4.65-2.1-6-2.1-1.35 0-4.68.53-6 2.1-1.01751-1.223-1.58255-2.7592-1.6-4.35.05757-1.9611.88948-3.81954 2.31374-5.16884C8.138 5.48166 10.0387 4.75135 12 4.79979c1.9613-.04844 3.862.68187 5.2863 2.03117 1.4242 1.3493 2.2561 3.20774 2.3137 5.16884-.0174 1.5908-.5825 3.127-1.6 4.35Zm-6-9.75001c-.4255-.01198-.8492.06-1.2469.21185-.3977.15184-.76159.38057-1.07084.67311-.30926.29253-.55783.64315-.73152 1.03179-.17369.38865-.26908.80772-.28074 1.23325.01166.42551.10705.84461.28074 1.23321.17369.3887.42226.7393.73152 1.0318.30925.2926.67314.5213 1.07084.6731.3977.1519.8214.2239 1.2469.2119.425.012.8482-.0601 1.2454-.2121.3971-.1519.7603-.3808 1.0687-.6735.3085-.2926.5561-.6433.7287-1.0319.1726-.3886.2668-.8074.2772-1.23251-.0104-.42507-.1046-.84392-.2772-1.23251-.1726-.38858-.4202-.73927-.7287-1.03193-.3084-.29266-.6716-.52154-1.0687-.6735-.3972-.15197-.8204-.22403-1.2454-.21206Zm0 4.50001c-.2636-.0137-.5174-.1044-.73-.2608-.2126-.1564-.3747-.3717-.4662-.6193-.0916-.24752-.1085-.51649-.0488-.77359.0597-.2571.1935-.49105.3848-.67291.1913-.18186.4317-.30366.6915-.35033.2598-.04666.5276-.01615.7702.08777.2426.10391.4495.27668.595.49691.1454.22024.2231.47829.2235.74224-.0105.36691-.1657.71481-.4317.96771s-.6213.3904-.9883.3823Z"/></svg>