<svg width="24" height="24" fill="current" xmlns="http://www.w3.org/2000/svg"><path d="M19.2 5.09013V15.4601H8.4V5.09013h10.8Zm0-1.73H8.4c-.46775-.00805-.91967.16941-1.25697.49359-.33729.32417-.53253.7687-.54303 1.23641V15.4601c.0105.4677.20574.9123.54303 1.2364.3373.3242.78922.5017 1.25697.4936h10.8c.4678.0081.9197-.1694 1.257-.4936.3373-.3241.5325-.7687.543-1.2364V5.09013c-.0105-.46771-.2057-.91224-.543-1.23641-.3373-.32418-.7892-.50164-1.257-.49359Zm-7.65 8.34997 1.52 2 2.23-2.71 3 3.6h-9l2.25-2.89ZM3 6.81013V18.9101c.0105.4677.20574.9123.54303 1.2364.3373.3242.78922.5017 1.25697.4936h12.6v-1.73H4.8V6.81013H3Z"/></svg>