<svg width="24" height="24" fill="current" xmlns="http://www.w3.org/2000/svg"><path d="M18.5943 20c-.4411.0034-.8782-.0836-1.2846-.2555-.4064-.172-.7735-.4253-1.0789-.7445l-1.835-2H9.54912l-1.84494 2c-.30427.3206-.67119.5749-1.07785.7469-.40666.1721-.84432.2582-1.28567.2531-.48204-.0029-.95744-.1129-1.392-.3221-.43455-.2093-.81744-.5125-1.12111-.8879-.31694-.386-.55349-.8317-.69566-1.3109-.14217-.4793-.18708-.9822-.13207-1.4791l.99727-7.66c.12166-1.17639.66868-2.2674 1.53775-3.06699C5.4039 4.47341 6.53487 4.02057 7.71416 4h8.51664c1.1612.03342 2.2714.48564 3.1269 1.27367.8554.78802 1.3988 1.85898 1.5303 3.01633L21.9451 16c.0661.5029.0294 1.014-.1078 1.5022-.1371.4883-.3719.9434-.69 1.3378-.3137.3704-.7053.6666-1.1467.8671-.4414.2006-.9217.3006-1.4063.2929Zm-9.21471-5h5.18581c.2002.0022.398.0449.5814.1257.1834.0808.3486.1979.4856.3443l1.9946 2.08c.1384.1421.3048.2537.4886.3277.1838.0741.3809.1089.5789.1023.1979-.0065.3924-.0544.5709-.1405.1785-.0861.3371-.2085.4658-.3595.14-.1736.2431-.374.3031-.5889.06-.2149.0757-.4399.046-.6611l-.9973-7.66c-.0762-.70546-.4094-1.3579-.9358-1.83218-.5263-.47428-1.2087-.73701-1.9164-.73782H7.71416c-.68506.0319-1.33612.30855-1.83546.77991-.49934.47136-.814 1.10633-.88708 1.79009l-.99727 7.66c-.02971.2212-.01408.4462.04594.6611.06002.2149.16316.4153.30311.5889.1269.1521.28437.2756.46212.3625.17774.0869.37177.1352.5694.1418.19764.0066.39445-.0286.57757-.1035.18312-.0748.34844-.1875.48516-.3308l1.99454-2.08c.24533-.2709.58377-.4388.9474-.47Z"/><path d="M9.65012 13.5h-1.89v-2h-1.89v-2h1.89v-2h1.89v2h1.87998v2H9.65012v2ZM14.8302 10.5002c-.2998.0181-.5982-.0544-.8564-.2079-.2582-.1534-.4644-.38092-.5919-.65294-.1274-.27201-.1703-.57603-.1229-.87267.0473-.29664.1826-.57225.3883-.79112.2057-.21888.4725-.37094.7656-.43649.2932-.06555.5992-.04157.8786.06883.2794.1104.5192.30213.6883.55037.1692.24825.2599.54156.2604.84195.0108.38557-.1314.75975-.3956 1.04077-.2642.2811-.6289.4462-1.0144.4592Zm0-1.99997c-.1002-.00804-.2005.01431-.2878.06413-.0873.04983-.1576.12482-.2016.21518-.0441.09036-.0598.19191-.0453.29138.0145.09947.0587.19225.1268.26623.068.07399.1568.12573.2547.14849.098.02276.2005.01548.2942-.0209.0937-.03638.1743-.10016.2312-.18302.0569-.08287.0875-.18096.0878-.28149.0027-.06305-.0071-.12601-.0287-.18527-.0217-.05927-.0549-.11368-.0976-.16012-.0427-.04644-.0942-.084-.1514-.11053-.0573-.02653-.1192-.04151-.1823-.04408ZM16.7099 13.4998c-.2996.016-.5971-.0582-.854-.213-.257-.1548-.4616-.3831-.5875-.6554-.1259-.2722-.1673-.576-.1188-.8721.0486-.296.1847-.5707.391-.7886.2062-.2178.473-.3688.766-.4335.2929-.0646.5985-.04.8773.0708.2788.1108.5179.3026.6866.5508.1686.2481.259.541.2594.841.0053.1918-.0272.3827-.0957.5619-.0685.1791-.1716.3431-.3035.4824-.1319.1393-.2899.2512-.4651.3294-.1751.0782-.364.1211-.5557.1263Zm0-2c-.1-.006-.1994.0182-.2855.0693-.0861.0512-.1548.127-.1973.2177-.0425.0906-.0567.192-.041.2909.0158.0988.0609.1907.1295.2637.0686.0729.1575.1236.2552.1455.0977.0218.1997.0138.2928-.023.0932-.0368.1731-.1007.2295-.1834.0564-.0828.0866-.1806.0868-.2807.0027-.0638-.0074-.1276-.0297-.1875-.0223-.0599-.0564-.1148-.1002-.1613-.0437-.0466-.0964-.084-.1548-.1099-.0584-.026-.1214-.04-.1853-.0413Z"/></svg>