<svg width="28" height="28" fill="current" xmlns="http://www.w3.org/2000/svg"><path d="M27.3333 4.9065 12.12 20.1332l-5.65337-5.6534 1.88-1.88L12.12 16.3732 25.4533 3.03984l1.88 1.86666Zm-2.9467 6.72c.1734.76.28 1.56.28 2.3733 0 5.8934-4.7733 10.6667-10.6666 10.6667-5.89337 0-10.66671-4.7733-10.66671-10.6667C3.33329 8.1065 8.10663 3.33317 14 3.33317c2.1066 0 4.0533.61333 5.7066 1.66667l1.92-1.92C19.4666 1.55984 16.84.666504 14 .666504 6.63996.666504.666626 6.63984.666626 13.9998c0 7.36 5.973334 13.3334 13.333374 13.3334 7.36 0 13.3333-5.9734 13.3333-13.3334 0-1.5866-.2933-3.1066-.8-4.51996l-2.1467 2.14666Z"/></svg>