<svg width="24" height="24" fill="none" xmlns="http://www.w3.org/2000/svg"><path d="M3.741 1.40811 22.203 11.5621c.0784.0432.1438.1066.1893.1836.0455.0771.0695.1649.0695.2544 0 .0895-.024.1773-.0695.2544-.0455.077-.1109.1404-.1893.1836L3.741 22.5921c-.07613.0419-.16185.0632-.24873.0619-.08687-.0014-.1719-.0253-.24669-.0696-.0748-.0442-.13678-.1071-.17985-.1826-.04306-.0754-.06572-.1608-.06573-.2477V1.84611c.00001-.08689.02267-.17227.06573-.24773.04307-.07547.10505-.13841.17985-.18262.07479-.04421.15982-.06817.24669-.06951.08688-.00134.1726.01998.24873.06186ZM5 13.0001v6.617l13.85-7.617L5 4.38311v6.61699h5v2H5Z" fill="#000"/></svg>