<svg width="24" height="24" fill="current" xmlns="http://www.w3.org/2000/svg"><path d="m13.1202 17.0232-4.19899-2.29c-.54821.5861-1.26002.9937-2.04293 1.1699-.78291.1762-1.60072.1128-2.34715-.1819-.74643-.2946-1.38696-.807-1.83836-1.4706C2.24138 13.5871 2 12.8032 2 12.0007c0-.8025.24138-1.5864.69277-2.24994.4514-.66351 1.09193-1.1759 1.83836-1.4706.74643-.29469 1.56424-.35805 2.34715-.18184.78291.1762 1.49472.58382 2.04293 1.16988l4.19999-2.29c-.2384-.94392-.1244-1.94241.3206-2.80829.4451-.86589 1.1907-1.53973 2.0971-1.89521.9063-.35547 1.9112-.36819 2.8263-.03576.9151.33243 1.6775.98718 2.1443 1.84152.4669.85435.6061 1.84963.3916 2.79929-.2145.94966-.7679 1.78849-1.5567 2.35926-.7887.57078-1.7585.83429-2.7276.74119-.9691-.09312-1.871-.53649-2.5366-1.247l-4.19999 2.29c.16119.6414.16119 1.3126 0 1.954l4.19899 2.29c.6656-.7105 1.5675-1.1539 2.5366-1.247.9691-.0931 1.9389.1704 2.7276.7412.7888.5708 1.3422 1.4096 1.5567 2.3593.2145.9496.0753 1.9449-.3916 2.7992-.4668.8544-1.2292 1.5091-2.1443 1.8416-.9151.3324-1.92.3197-2.8263-.0358-.9064-.3555-1.652-1.0293-2.0971-1.8952-.445-.8659-.559-1.8644-.3206-2.8083v.001Zm-7.11999-3.023c.53043 0 1.03914-.2107 1.41421-.5858s.58579-.8838.58579-1.4142c0-.5304-.21072-1.0391-.58579-1.4142s-.88378-.5858-1.41421-.5858c-.53044 0-1.03914.2107-1.41422.5858-.37507.3751-.58578.8838-.58578 1.4142 0 .5304.21071 1.0391.58578 1.4142.37508.3751.88378.5858 1.41422.5858Zm10.99999-6c.5304 0 1.0391-.21071 1.4142-.58578.3751-.37508.5858-.88378.5858-1.41422 0-.53043-.2107-1.03914-.5858-1.41421s-.8838-.58579-1.4142-.58579c-.5304 0-1.0391.21072-1.4142.58579s-.5858.88378-.5858 1.41421c0 .53044.2107 1.03914.5858 1.41422.3751.37507.8838.58578 1.4142.58578Zm0 12c.5304 0 1.0391-.2107 1.4142-.5858s.5858-.8838.5858-1.4142c0-.5304-.2107-1.0391-.5858-1.4142s-.8838-.5858-1.4142-.5858c-.5304 0-1.0391.2107-1.4142.5858s-.5858.8838-.5858 1.4142c0 .5304.2107 1.0391.5858 1.4142s.8838.5858 1.4142.5858Z"/></svg>