<svg width="28" height="30" fill="current" xmlns="http://www.w3.org/2000/svg"><path fill-rule="evenodd" clip-rule="evenodd" d="M20.2282.78262c-.2344-.23442-.5524-.366116-.8839-.366116s-.6495.131696-.8839.366116L3.13976 16.1033c-.15704.157-.26941.3531-.32554.5679L1.14755 23.052c-.11215.4293.01175.886.32554 1.1997.31379.3138.77043.4377 1.19979.3256l6.38071-1.6667c.21489-.0561.41094-.1685.56798-.3255L24.9422 7.26443c.4882-.48815.4882-1.27961 0-1.76776L20.2282.78262ZM5.14735 17.6312 19.3443 3.43427l2.9463 2.94628L8.09363 20.5775l-3.98794 1.0417 1.04166-3.988Z"/><path d="M1.66663 27.0832c-.69036 0-1.250004.5596-1.250004 1.25 0 .6903.559644 1.25 1.250004 1.25H26.6666c.6904 0 1.25-.5597 1.25-1.25 0-.6904-.5596-1.25-1.25-1.25H1.66663Z"/></svg>