<?xml version="1.0" encoding="utf-8"?>
<!-- Generator: Adobe Illustrator 26.0.2, SVG Export Plug-In . SVG Version: 6.00 Build 0)  -->
<svg version="1.1" id="Layer_1" xmlns="http://www.w3.org/2000/svg" xmlns:xlink="http://www.w3.org/1999/xlink" x="0px" y="0px"
	 viewBox="0 0 1920 1080" style="enable-background:new 0 0 1920 1080;" xml:space="preserve">
<style type="text/css">
	.st0{fill:#2B2B2B;}
	.st1{fill:#EFEFEF;stroke:#000000;stroke-width:2;stroke-miterlimit:10;}
	.st2{font-family:'YdestreetB-KSCpc-EUC-H';}
	.st3{font-size:40px;}
	.st4{opacity:0.26;fill:#777777;}
	.st5{font-size:182.1453px;}
	.st6{font-size:203.7301px;}
	.st7{fill:#FFE330;}
	.st8{font-size:90px;}
	.st9{fill:#FBFAFA;}
	.st10{font-family:'YdestreetL-KSCpc-EUC-H';}
	.st11{font-size:30px;}
	.st12{fill:none;stroke:#FBFAFA;stroke-width:2;stroke-miterlimit:10;}
	.st13{fill:#00A0FF;}
</style>
<g>
	<rect x="-2" y="-1" class="st0" width="1922" height="1080"/>
</g>
<g>
	<path class="st1" d="M780.2,298.1L780.2,298.1c0-31.6,25.8-57.4,57.4-57.4H1024c31.6,0,57.4,25.8,57.4,57.4v0
		c0,31.6-25.8,57.4-57.4,57.4H837.6c-2.5,0-5-0.2-7.4-0.5L783,375.5l15.4-35.5C787.2,329.5,780.2,314.6,780.2,298.1z"/>
	<text transform="matrix(1 0 0 1 846.6998 311.9097)" class="st2 st3">만반잘부!</text>
</g>
<text transform="matrix(0 -1 1 0 1857.9395 1077.5479)" class="st4 st2 st5">MeMEg1e</text>
<image style="overflow:visible;" width="430" height="1245" xlink:href="../Desktop/Frame 27.png"  transform="matrix(1 0 0 1 1259 -165)">
</image>
<text transform="matrix(1 0 0 1 27 1036.623)" class="st4 st2 st6">MeMEg1e</text>
<g>
	<g>
		<text transform="matrix(1 0 0 1 308.3506 460.8052)" class="st7 st2 st8">밈글밈글</text>
		<text transform="matrix(1 0 0 1 308.3506 517.8052)" class="st9 st10 st11">사전. 근데 이제 신조어를 곁들인</text>
		<polyline class="st12" points="269.1,446.7 269.1,336.7 379.1,336.7 		"/>
		<polyline class="st12" points="785.1,458.7 785.1,568.7 675.1,568.7 		"/>
	</g>
	<g>
		<rect x="695.1" y="410.1" class="st13" width="10" height="10"/>
		<rect x="721.2" y="410.1" class="st13" width="10" height="10"/>
		<g>
			<polygon class="st13" points="742.3,455.2 684.1,455.2 684.1,432.1 690.1,432.1 690.1,449.2 736.2,449.2 736.2,432.1 
				742.3,432.1 			"/>
		</g>
	</g>
</g>
</svg>
