<?xml version="1.0" encoding="utf-8"?>
<!-- Generator: Adobe Illustrator 26.0.2, SVG Export Plug-In . SVG Version: 6.00 Build 0)  -->
<svg version="1.1" id="Layer_1" xmlns="http://www.w3.org/2000/svg" xmlns:xlink="http://www.w3.org/1999/xlink" x="0px" y="0px"
	 viewBox="0 0 1920 1080" style="enable-background:new 0 0 1920 1080;" xml:space="preserve">
<style type="text/css">
	.st0{fill:#FFE330;}
</style>
<g>
	<g>
		<path class="st0" d="M264.07,186.56l-0.51-0.48c-10.67-10.08-16.79-24.2-16.79-38.74c0-29.42,23.93-53.35,53.35-53.35h368.12
			c29.42,0,53.35,23.93,53.35,53.35s-23.93,53.35-53.35,53.35H300.12c-2.03,0-4.16-0.13-6.34-0.39l-0.27-0.03l-43.53,18.84
			L264.07,186.56z"/>
		<g>
			<path d="M668.25,95c28.86,0,52.35,23.48,52.35,52.35c0,28.86-23.48,52.35-52.35,52.35H300.12c-2.02,0-4.05-0.13-6.22-0.39
				l-0.54-0.06l-0.5,0.21l-40.96,17.73l12.8-29.58l0.56-1.29l-1.02-0.96c-10.47-9.89-16.47-23.74-16.47-38.01
				c0-28.86,23.48-52.35,52.35-52.35L668.25,95 M668.25,93H300.12c-29.89,0-54.35,24.46-54.35,54.35l0,0
				c0,15.51,6.59,29.54,17.1,39.46l-14.81,34.22l45.6-19.73c2.12,0.25,4.27,0.4,6.46,0.4h368.12c29.89,0,54.35-24.46,54.35-54.35
				l0,0C722.59,117.46,698.14,93,668.25,93L668.25,93z"/>
		</g>
	</g>
	<g>
		<path d="M318.15,135.95h8.51l2.04-5.64h5l-2.04,5.64h7.3l2.04-5.64h5l-2.04,5.64h5v4.31h-6.51l-2.12,5.87h7.11v4.31h-8.63
			l-2.27,6.36h-5l2.27-6.36h-7.3l-2.27,6.36h-5l2.27-6.36h-4.88v-4.31h6.4l2.12-5.87h-7L318.15,135.95L318.15,135.95z
			 M328.03,146.13h7.3l2.12-5.87h-7.3L328.03,146.13z"/>
		<path d="M352.17,141.59h13.47v-1.1c-0.63,0-1.28-0.02-1.95-0.06s-1.32-0.09-1.97-0.17c-0.64-0.08-1.26-0.16-1.84-0.26
			c-0.58-0.1-1.1-0.23-1.55-0.38c-0.61-0.2-1.12-0.46-1.53-0.78c-0.42-0.32-0.76-0.66-1.02-1.02c-0.26-0.37-0.45-0.74-0.57-1.13
			c-0.11-0.39-0.17-0.78-0.17-1.15c0-0.5,0.15-0.97,0.45-1.4c0.3-0.43,0.79-0.79,1.48-1.1h-3.52v-3.44h12v-2.69h6.66v2.69h12.22
			v3.44h-3.56c1.34,0.61,2.01,1.44,2.01,2.5c0,0.81-0.25,1.58-0.74,2.33c-0.49,0.74-1.34,1.33-2.55,1.76
			c-0.45,0.15-0.98,0.28-1.59,0.4c-0.61,0.11-1.24,0.2-1.89,0.26c-0.66,0.06-1.32,0.11-1.99,0.15c-0.67,0.04-1.32,0.06-1.95,0.06
			v1.1h13.77v3.52h-33.68L352.17,141.59L352.17,141.59z M377.71,151.17v-1.44h-22.89v-3.29h28.19v7.64h-22.89v1.51h24.14v3.29
			h-29.44v-7.72h22.89V151.17z M370.79,136.75c1.29,0,2.35-0.02,3.2-0.08c0.84-0.05,1.52-0.13,2.02-0.25
			c0.5-0.11,0.86-0.24,1.06-0.38s0.3-0.31,0.3-0.51c0-0.23-0.1-0.42-0.3-0.57c-0.2-0.15-0.56-0.27-1.06-0.36s-1.18-0.16-2.02-0.21
			c-0.85-0.05-1.91-0.08-3.2-0.08h-3.75c-1.26,0-2.31,0.03-3.14,0.08c-0.83,0.05-1.51,0.12-2.02,0.21c-0.52,0.09-0.88,0.21-1.1,0.36
			c-0.21,0.15-0.32,0.34-0.32,0.57c0,0.2,0.11,0.37,0.32,0.51c0.21,0.14,0.58,0.27,1.1,0.38c0.52,0.11,1.19,0.2,2.02,0.25
			s1.88,0.08,3.14,0.08H370.79z"/>
		<path d="M416.84,158.66v-7.11l-16.46,2.73h-9.46v-14.61h14.65v-5.83h-14.65v-3.97h19.87v13.77h-14.57v6.47h4.2l16.42-2.69V128.8
			h5.22v28.08L416.84,158.66z"/>
		<path d="M427.86,140.19h13.96v-1.63h-11.28V128.5h28.31v10.07H447.5v1.63h14.04v3.78h-33.68L427.86,140.19L427.86,140.19z
			 M453.4,150.56v-1.66h-22.9v-3.44h28.19v8.33H435.8v1.66h24.14v3.44H430.5v-8.33H453.4z M435.76,134.71h17.86v-2.35h-17.86V134.71
			z"/>
		<path d="M492.53,158.66v-7.11l-16.46,2.73h-9.46v-14.61h14.65v-5.83h-14.65v-3.97h19.87v13.77H471.9v6.47h4.2l16.42-2.69V128.8
			h5.22v28.08L492.53,158.66z"/>
		<path d="M539.19,144.24h-4.69v12.64l-5.3,1.78v-5.6l-7.83,2.38h-18.51v-3.97h6.66v-11.92h5.07v11.92h6.47l8.14-2.61V128.8h5.3
			v10.67h4.69L539.19,144.24L539.19,144.24z M518.53,146.93l1.66-13.17h-16.27v-3.97h21.61l-2.12,17.14H518.53z"/>
		<path d="M559.81,154.95h-5.18l1.48-10.9l-14.83,2.5l-0.76-4.43l16.23-2.69l0.72-5.15h-15.78v-3.97h21.38L559.81,154.95z
			 M576.99,144.62h-5.07v12.26l-5.22,1.78V128.8h5.22v11.05h5.07V144.62z"/>
		<path d="M579.23,140.19h13.96v-1.63h-11.28V128.5h28.31v10.07h-11.35v1.63h14.04v3.78h-33.68V140.19z M604.77,150.56v-1.66h-22.89
			v-3.44h28.19v8.33h-22.89v1.66h24.14v3.44h-29.44v-8.33H604.77z M587.14,134.71H605v-2.35h-17.86V134.71z"/>
		<path d="M643.9,158.66v-7.11l-16.46,2.73h-9.46v-14.61h14.65v-5.83h-14.65v-3.97h19.87v13.77h-14.57v6.47h4.2l16.42-2.69V128.8
			h5.22v28.08L643.9,158.66z"/>
	</g>
</g>
</svg>
