<?xml version="1.0" encoding="utf-8"?>
<!-- Generator: Adobe Illustrator 26.0.2, SVG Export Plug-In . SVG Version: 6.00 Build 0)  -->
<svg version="1.1" id="Layer_1" xmlns="http://www.w3.org/2000/svg" xmlns:xlink="http://www.w3.org/1999/xlink" x="0px" y="0px"
	 viewBox="0 0 1920 1080" style="enable-background:new 0 0 1920 1080;" xml:space="preserve">
<style type="text/css">
	.st0{fill:#FFE330;}
</style>
<g>
	<g>
		<path class="st0" d="M706.56,808.65c-29.42,0-53.35-23.93-53.35-53.35s23.93-53.35,53.35-53.35h87.05
			c29.42,0,53.35,23.93,53.35,53.35s-23.93,53.35-53.35,53.35H706.56z"/>
		<g>
			<path d="M793.61,702.96c28.86,0,52.35,23.48,52.35,52.35c0,28.86-23.48,52.35-52.35,52.35h-87.05
				c-28.86,0-52.35-23.48-52.35-52.35c0-28.86,23.48-52.35,52.35-52.35H793.61 M793.61,700.96h-87.05
				c-29.89,0-54.35,24.46-54.35,54.35l0,0c0,29.89,24.46,54.35,54.35,54.35h87.05c29.89,0,54.35-24.46,54.35-54.35l0,0
				C847.96,725.42,823.5,700.96,793.61,700.96L793.61,700.96z"/>
		</g>
	</g>
	<g>
		<path d="M697.58,743.92h8.51l2.04-5.64h5l-2.04,5.64h7.3l2.04-5.64h5l-2.04,5.64h4.99v4.31h-6.51l-2.12,5.87h7.11v4.31h-8.63
			l-2.27,6.36h-5l2.27-6.36h-7.3l-2.27,6.36h-5l2.27-6.36h-4.88v-4.31h6.4l2.12-5.87h-7v-4.31H697.58z M707.46,754.1h7.3l2.12-5.87
			h-7.3L707.46,754.1z"/>
		<path d="M742.76,742.37h-2.01v8.67l2.61,3.56l2.65-3.48v-8.74h-2.19v-4.09h11.66v4.09h-4.24v8.7l5.49,7.91l-3.63,2.84l-4.62-6.21
			l-5.11,6.02l-5.07-6.02l-4.43,6.58l-4.01-2.61l5.68-8.48v-8.74h-4.47v-4.09h11.69V742.37z M767.21,752.58h-4.88v12.26l-5.22,1.78
			v-29.86h5.22v11.05h4.88V752.58z"/>
		<path d="M780.61,742.37h-2.01v8.67l2.61,3.56l2.65-3.48v-8.74h-2.19v-4.09h11.66v4.09h-4.24v8.7l5.49,7.91l-3.63,2.84l-4.62-6.21
			l-5.11,6.02l-5.07-6.02l-4.43,6.58l-4.01-2.61l5.68-8.48v-8.74h-4.47v-4.09h11.69V742.37z M805.05,752.58h-4.88v12.26l-5.22,1.78
			v-29.86h5.22v11.05h4.88V752.58z"/>
	</g>
</g>
</svg>
