<svg version="1.1" id="Layer_1" xmlns="http://www.w3.org/2000/svg" x="0" y="0" viewBox="0 0 1920 1080" style="enable-background:new 0 0 1920 1080" xml:space="preserve"><style>.st0{fill:none;stroke:#000;stroke-width:2;stroke-miterlimit:10}</style><path d="M147.59 478.54h-42.37v-30.13h42.37v30.13zm21.9 28.47h-57.62V483.3h57.62v23.71zm-53.85-36.4h21.52v-14.27h-21.52v14.27zm43.28 20.62h-36.48v7.85h36.48v-7.85zm.22-10.42v-33.15h10.57v30.36l-10.57 2.79zM180.52 467.14h47.2l2.64-12.16h-44.48v-7.93h55.66l-3.93 20.09h10.12v7.93h-67.22l.01-7.93zm50.6 22.5v-3.63h-45.69v-7.4h56.26v17.97H196v3.7h48.18v7.4h-58.76v-18.05l45.7.01zM298.64 478.54h-42.37v-30.13h42.37v30.13zm21.9 28.47h-57.62V483.3h57.62v23.71zm-53.85-36.4h21.52v-14.27h-21.52v14.27zm43.27 20.62h-36.48v7.85h36.48v-7.85zm.23-10.42v-33.15h10.57v30.36l-10.57 2.79zM331.56 467.14h47.2l2.64-12.16h-44.48v-7.93h55.66l-3.93 20.09h10.12v7.93h-67.22l.01-7.93zm50.6 22.5v-3.63h-45.69v-7.4h56.26v17.97h-45.69v3.7h48.18v7.4h-58.76v-18.05l45.7.01z"/><g><path d="m103.08 548.98-1.66-1.28 6.92-8.31v-6.57h2.47v6.44l7.02 8.16-1.56 1.33-6.67-7.48-6.52 7.71zm16.64 2.97v-19.71h2.22v7.9h3.98v2.01h-3.98v8.79l-2.22 1.01zM128.41 544.85l-1.26-1.59 6.67-5.46v-3.45h-6.19v-1.79h14.58v1.79h-5.97v3.42l6.57 5.04-1.18 1.56-6.6-4.91-6.62 5.39zm1.08.76h2.37v4.43h17.09v1.79h-19.46v-6.22zm16.84 1.05v-7.78h-4.61v-2.01h4.61v-4.63h2.22v13.42l-2.22 1zM152.75 548.8h3.07v3.02h-3.07v-3.02zM165.76 540.95h16.21l1.38-6.9h-15.78v-1.79h18.48l-1.81 8.69h3.88v1.79h-22.35v-1.79h-.01zm1.84 4.13h2.37v4.96h16.84v1.79H167.6v-6.75zM203.15 547.65l-6.85 1.43h-4.78v-15.81h9.97v1.79h-7.7v12.08h2.54l6.82-1.36v1.87zm2.06 4.3v-10.37h-6.37v-2.01h6.37v-7.33h2.22v18.7l-2.22 1.01zm5.52 0v-19.71h2.22v18.7l-2.22 1.01zM238.42 542.06c0 1.04-.16 2-.48 2.88-.32.88-.79 1.65-1.42 2.3-.63.65-1.4 1.17-2.32 1.54s-1.96.55-3.14.55h-.28c-1.19 0-2.25-.18-3.16-.55-.92-.37-1.69-.88-2.31-1.54-.62-.65-1.09-1.42-1.41-2.3s-.48-1.84-.48-2.88v-2.09c0-1.02.16-1.98.48-2.87.32-.89.79-1.66 1.42-2.32.63-.65 1.4-1.17 2.32-1.54s1.97-.55 3.16-.55h.25c1.18 0 2.22.18 3.14.55s1.69.88 2.32 1.54c.63.65 1.11 1.43 1.42 2.32.32.89.48 1.85.48 2.87l.01 2.09zm-2.22-1.89c0-.97-.14-1.81-.41-2.52-.28-.71-.64-1.28-1.1-1.74-.46-.45-1-.79-1.62-1.01-.62-.22-1.27-.33-1.96-.33h-.38c-.67 0-1.31.11-1.92.31-.61.21-1.15.54-1.62.98s-.85 1.02-1.13 1.72c-.28.7-.43 1.56-.43 2.57v1.74c0 .97.13 1.81.4 2.5.27.7.63 1.27 1.09 1.73s1 .78 1.62.99c.62.21 1.28.31 1.98.31h.38c.7 0 1.36-.1 1.98-.31s1.16-.54 1.62-.99c.46-.45.82-1.03 1.09-1.73.27-.7.4-1.53.4-2.5v-1.72h.01zm5.99 11.78v-19.71h2.22v18.7l-2.22 1.01zM260.14 535.13h-4.63v5.82l5.51 6.49-1.49 1.36-5.25-5.87-5.07 6.24-1.64-1.28 5.56-6.9v-5.87h-4.91v-1.79h11.91v1.8h.01zm2.67 16.82v-11.1h-4v-2.01h4v-6.6h2.22v18.7l-2.22 1.01zm5.31 0v-19.71h2.22v18.7l-2.22 1.01zM281.44 543.97l-1.33-1.41 6.8-6.12v-4.25h2.47v4.28l6.82 5.89-1.26 1.38-6.8-5.64-6.7 5.87zm1.26 1.59h2.37v4.48h17.09v1.79H282.7v-6.27zm16.64 1.61v-14.93h2.22v13.92l-2.22 1.01zM305.73 548.68h9.97v-5.26h2.37v5.26h10.02v1.79h-22.35l-.01-1.79zm20.09-14.02h-7.8v2.95l8.74 5.16-.96 1.64-8.99-5.06-8.76 5.66-1.18-1.64 8.68-5.71v-3h-7.73v-1.74h18v1.74zM349.69 551.95v-10.17h-4.36v.28c0 1.04-.15 2-.45 2.88-.3.88-.75 1.65-1.34 2.3-.59.65-1.33 1.17-2.23 1.54-.9.37-1.94.55-3.11.55h-.28c-.29 0-.66-.02-1.14-.05-.47-.03-.97-.12-1.5-.26s-1.06-.36-1.6-.67c-.54-.3-1.03-.72-1.46-1.26-.44-.54-.79-1.21-1.06-2.03-.27-.81-.4-1.82-.4-3.01v-2.09c0-1.02.15-1.98.45-2.87.3-.89.75-1.66 1.35-2.32.6-.65 1.34-1.17 2.24-1.54s1.95-.55 3.14-.55h.25c1.16 0 2.18.18 3.06.54s1.62.86 2.22 1.49 1.05 1.38 1.36 2.24.47 1.8.49 2.81h4.36v-7.53h2.22v18.7l-2.21 1.02zm-6.57-11.78c0-.97-.13-1.81-.38-2.52s-.59-1.28-1.03-1.74c-.44-.45-.95-.79-1.54-1.01-.59-.22-1.23-.33-1.92-.33h-.38c-.67 0-1.3.11-1.9.31-.59.21-1.11.54-1.56.98-.44.44-.8 1.02-1.05 1.72-.26.7-.39 1.56-.39 2.57v1.74c0 .97.12 1.81.36 2.5.24.7.59 1.27 1.03 1.73.44.45.96.78 1.56.99.59.21 1.24.31 1.95.31h.38c.7 0 1.35-.1 1.95-.31.59-.21 1.11-.54 1.54-.99.43-.45.77-1.03 1.02-1.73.24-.7.36-1.53.36-2.5v-1.72zM356.08 541.03h22.35v1.79h-22.35v-1.79zm18.25 6.11v-1.36h-16.54v-1.74h18.75v4.76h-16.49v1.46h17.32V552h-19.54v-4.86h16.5zm-.42-12.08v-1.28h-15.86v-1.74h18.08v4.71h-15.81v1.23h16.56v1.74H358.1v-4.66h15.81zM399.64 541.33h-2.34l2.11-6.9h-11.48v-1.84h14.48l-2.77 8.74zM409.73 552h-18.58v-9.19h18.33v1.74h-16.06v1.94h16.06v1.69h-16.06v2.09h16.31V552zm-2.59-10.22v-2.27h-4.63v-1.84h4.63v-1.96h-4.25v-1.84h4.25v-1.64h2.22v8.53l-2.22 1.02zM413.48 540.02h22.35v1.79h-22.35v-1.79zm18.25 6.8v-1.69h-16.54v-1.74h18.75v5.08h-16.49v1.79h17.32V552h-19.54v-5.19h16.5v.01zm-16.06-14.56h18.05v1.79h-15.78v2.72h15.86v1.79h-18.13v-6.3zM438.61 537.68c0-.87.18-1.67.53-2.39.35-.72.84-1.34 1.45-1.85s1.34-.91 2.19-1.18c.85-.28 1.77-.42 2.76-.42h1.21c.97 0 1.88.14 2.72.43s1.57.69 2.19 1.21 1.11 1.14 1.46 1.85c.35.71.53 1.5.53 2.35v.23c0 .91-.18 1.72-.54 2.44-.36.72-.85 1.33-1.48 1.84-.62.5-1.35.89-2.19 1.16-.84.27-1.74.4-2.7.4h-1.21c-.96 0-1.86-.13-2.7-.4-.84-.27-1.58-.66-2.21-1.16s-1.13-1.12-1.49-1.84c-.36-.72-.54-1.54-.54-2.44v-.23h.02zm2.21.25c0 .6.12 1.15.36 1.64s.58.9 1 1.25c.43.34.93.61 1.52.79s1.21.28 1.88.28h1.11c.62 0 1.22-.09 1.8-.28.58-.18 1.08-.45 1.52-.79.43-.34.78-.76 1.04-1.25s.39-1.03.39-1.64v-.28c0-1.21-.43-2.17-1.29-2.88-.86-.71-2.01-1.07-3.45-1.07h-1.11c-.67 0-1.3.09-1.88.28-.59.18-1.09.45-1.52.79-.43.34-.76.76-1 1.25s-.36 1.03-.36 1.64l-.01.27zm.96 7.63h2.37v4.48h16.59v1.79h-18.96v-6.27zm15.88 1.1v-14.43h2.22v13.42l-2.22 1.01z"/></g><path class="st0" d="M68 490.97v-92.31h92.31M501 501.03v92.31h-92.31"/></svg>