<?xml version="1.0" encoding="utf-8"?>
<!-- Generator: Adobe Illustrator 26.0.2, SVG Export Plug-In . SVG Version: 6.00 Build 0)  -->
<svg version="1.1" id="Layer_1" xmlns="http://www.w3.org/2000/svg" xmlns:xlink="http://www.w3.org/1999/xlink" x="0px" y="0px"
	 viewBox="0 0 1920 1080" style="enable-background:new 0 0 1920 1080;" xml:space="preserve">
<style type="text/css">
	.st0{fill:none;stroke:#000000;stroke-width:2;stroke-miterlimit:10;}
</style>
<g>
	<g>
		<path d="M147.59,478.54h-42.37v-30.13h42.37V478.54z M169.49,507.01h-57.62V483.3h57.62V507.01z M115.64,470.61h21.52v-14.27
			h-21.52V470.61z M158.92,491.23h-36.48v7.85h36.48V491.23z M159.14,480.81v-33.15h10.57v30.36L159.14,480.81z"/>
		<path d="M180.52,467.14h47.2l2.64-12.16h-44.48v-7.93h55.66l-3.93,20.09h10.12v7.93h-67.22L180.52,467.14L180.52,467.14z
			 M231.12,489.64v-3.63h-45.69v-7.4h56.26v17.97H196v3.7h48.18v7.4h-58.76v-18.05L231.12,489.64L231.12,489.64z"/>
		<path d="M298.64,478.54h-42.37v-30.13h42.37V478.54z M320.54,507.01h-57.62V483.3h57.62V507.01z M266.69,470.61h21.52v-14.27
			h-21.52V470.61z M309.96,491.23h-36.48v7.85h36.48V491.23z M310.19,480.81v-33.15h10.57v30.36L310.19,480.81z"/>
		<path d="M331.56,467.14h47.2l2.64-12.16h-44.48v-7.93h55.66l-3.93,20.09h10.12v7.93h-67.22L331.56,467.14L331.56,467.14z
			 M382.16,489.64v-3.63h-45.69v-7.4h56.26v17.97h-45.69v3.7h48.18v7.4h-58.76v-18.05L382.16,489.64L382.16,489.64z"/>
	</g>
	<g>
		<path d="M103.08,548.98l-1.66-1.28l6.92-8.31v-6.57h2.47v6.44l7.02,8.16l-1.56,1.33l-6.67-7.48L103.08,548.98z M119.72,551.95
			v-19.71h2.22v7.9h3.98v2.01h-3.98v8.79L119.72,551.95z"/>
		<path d="M128.41,544.85l-1.26-1.59l6.67-5.46v-3.45h-6.19v-1.79h14.58v1.79h-5.97v3.42l6.57,5.04l-1.18,1.56l-6.6-4.91
			L128.41,544.85z M129.49,545.61h2.37v4.43h17.09v1.79h-19.46L129.49,545.61L129.49,545.61z M146.33,546.66v-7.78h-4.61v-2.01h4.61
			v-4.63h2.22v13.42L146.33,546.66z"/>
		<path d="M152.75,548.8h3.07v3.02h-3.07V548.8z"/>
		<path d="M165.76,540.95h16.21l1.38-6.9h-15.78v-1.79h18.48l-1.81,8.69h3.88v1.79h-22.35v-1.79H165.76z M167.6,545.08h2.37v4.96
			h16.84v1.79H167.6V545.08z"/>
		<path d="M203.15,547.65l-6.85,1.43h-4.78v-15.81h9.97v1.79h-7.7v12.08h2.54l6.82-1.36V547.65z M205.21,551.95v-10.37h-6.37v-2.01
			h6.37v-7.33h2.22v18.7L205.21,551.95z M210.73,551.95v-19.71h2.22v18.7L210.73,551.95z"/>
		<path d="M238.42,542.06c0,1.04-0.16,2-0.48,2.88c-0.32,0.88-0.79,1.65-1.42,2.3c-0.63,0.65-1.4,1.17-2.32,1.54
			s-1.96,0.55-3.14,0.55h-0.28c-1.19,0-2.25-0.18-3.16-0.55c-0.92-0.37-1.69-0.88-2.31-1.54c-0.62-0.65-1.09-1.42-1.41-2.3
			s-0.48-1.84-0.48-2.88v-2.09c0-1.02,0.16-1.98,0.48-2.87c0.32-0.89,0.79-1.66,1.42-2.32c0.63-0.65,1.4-1.17,2.32-1.54
			s1.97-0.55,3.16-0.55h0.25c1.18,0,2.22,0.18,3.14,0.55s1.69,0.88,2.32,1.54c0.63,0.65,1.11,1.43,1.42,2.32
			c0.32,0.89,0.48,1.85,0.48,2.87L238.42,542.06L238.42,542.06z M236.2,540.17c0-0.97-0.14-1.81-0.41-2.52
			c-0.28-0.71-0.64-1.28-1.1-1.74c-0.46-0.45-1-0.79-1.62-1.01c-0.62-0.22-1.27-0.33-1.96-0.33h-0.38c-0.67,0-1.31,0.11-1.92,0.31
			c-0.61,0.21-1.15,0.54-1.62,0.98s-0.85,1.02-1.13,1.72c-0.28,0.7-0.43,1.56-0.43,2.57v1.74c0,0.97,0.13,1.81,0.4,2.5
			c0.27,0.7,0.63,1.27,1.09,1.73s1,0.78,1.62,0.99c0.62,0.21,1.28,0.31,1.98,0.31h0.38c0.7,0,1.36-0.1,1.98-0.31
			s1.16-0.54,1.62-0.99c0.46-0.45,0.82-1.03,1.09-1.73c0.27-0.7,0.4-1.53,0.4-2.5v-1.72H236.2z M242.19,551.95v-19.71h2.22v18.7
			L242.19,551.95z"/>
		<path d="M260.14,535.13h-4.63v5.82l5.51,6.49l-1.49,1.36l-5.25-5.87l-5.07,6.24l-1.64-1.28l5.56-6.9v-5.87h-4.91v-1.79h11.91v1.8
			H260.14z M262.81,551.95v-11.1h-4v-2.01h4v-6.6h2.22v18.7L262.81,551.95z M268.12,551.95v-19.71h2.22v18.7L268.12,551.95z"/>
		<path d="M281.44,543.97l-1.33-1.41l6.8-6.12v-4.25h2.47v4.28l6.82,5.89l-1.26,1.38l-6.8-5.64L281.44,543.97z M282.7,545.56h2.37
			v4.48h17.09v1.79H282.7V545.56z M299.34,547.17v-14.93h2.22v13.92L299.34,547.17z"/>
		<path d="M305.73,548.68h9.97v-5.26h2.37v5.26h10.02v1.79h-22.35L305.73,548.68L305.73,548.68z M325.82,534.66h-7.8v2.95l8.74,5.16
			l-0.96,1.64l-8.99-5.06l-8.76,5.66l-1.18-1.64l8.68-5.71v-3h-7.73v-1.74h18V534.66z"/>
		<path d="M349.69,551.95v-10.17h-4.36v0.28c0,1.04-0.15,2-0.45,2.88c-0.3,0.88-0.75,1.65-1.34,2.3c-0.59,0.65-1.33,1.17-2.23,1.54
			c-0.9,0.37-1.94,0.55-3.11,0.55h-0.28c-0.29,0-0.66-0.02-1.14-0.05c-0.47-0.03-0.97-0.12-1.5-0.26s-1.06-0.36-1.6-0.67
			c-0.54-0.3-1.03-0.72-1.46-1.26c-0.44-0.54-0.79-1.21-1.06-2.03c-0.27-0.81-0.4-1.82-0.4-3.01v-2.09c0-1.02,0.15-1.98,0.45-2.87
			c0.3-0.89,0.75-1.66,1.35-2.32c0.6-0.65,1.34-1.17,2.24-1.54s1.95-0.55,3.14-0.55h0.25c1.16,0,2.18,0.18,3.06,0.54
			s1.62,0.86,2.22,1.49s1.05,1.38,1.36,2.24s0.47,1.8,0.49,2.81h4.36v-7.53h2.22v18.7L349.69,551.95z M343.12,540.17
			c0-0.97-0.13-1.81-0.38-2.52s-0.59-1.28-1.03-1.74c-0.44-0.45-0.95-0.79-1.54-1.01c-0.59-0.22-1.23-0.33-1.92-0.33h-0.38
			c-0.67,0-1.3,0.11-1.9,0.31c-0.59,0.21-1.11,0.54-1.56,0.98c-0.44,0.44-0.8,1.02-1.05,1.72c-0.26,0.7-0.39,1.56-0.39,2.57v1.74
			c0,0.97,0.12,1.81,0.36,2.5c0.24,0.7,0.59,1.27,1.03,1.73c0.44,0.45,0.96,0.78,1.56,0.99c0.59,0.21,1.24,0.31,1.95,0.31h0.38
			c0.7,0,1.35-0.1,1.95-0.31c0.59-0.21,1.11-0.54,1.54-0.99c0.43-0.45,0.77-1.03,1.02-1.73c0.24-0.7,0.36-1.53,0.36-2.5
			L343.12,540.17L343.12,540.17z"/>
		<path d="M356.08,541.03h22.35v1.79h-22.35V541.03z M374.33,547.14v-1.36h-16.54v-1.74h18.75v4.76h-16.49v1.46h17.32V552h-19.54
			v-4.86H374.33z M373.91,535.06v-1.28h-15.86v-1.74h18.08v4.71h-15.81v1.23h16.56v1.74H358.1v-4.66H373.91z"/>
		<path d="M399.64,541.33h-2.34l2.11-6.9h-11.48v-1.84h14.48L399.64,541.33z M409.73,552h-18.58v-9.19h18.33v1.74h-16.06v1.94h16.06
			v1.69h-16.06v2.09h16.31V552z M407.14,541.78v-2.27h-4.63v-1.84h4.63v-1.96h-4.25v-1.84h4.25v-1.64h2.22v8.53L407.14,541.78z"/>
		<path d="M413.48,540.02h22.35v1.79h-22.35V540.02z M431.73,546.82v-1.69h-16.54v-1.74h18.75v5.08h-16.49v1.79h17.32V552h-19.54
			v-5.19h16.5V546.82z M415.67,532.26h18.05v1.79h-15.78v2.72h15.86v1.79h-18.13L415.67,532.26L415.67,532.26z"/>
		<path d="M438.61,537.68c0-0.87,0.18-1.67,0.53-2.39c0.35-0.72,0.84-1.34,1.45-1.85c0.61-0.51,1.34-0.91,2.19-1.18
			c0.85-0.28,1.77-0.42,2.76-0.42h1.21c0.97,0,1.88,0.14,2.72,0.43s1.57,0.69,2.19,1.21s1.11,1.14,1.46,1.85
			c0.35,0.71,0.53,1.5,0.53,2.35v0.23c0,0.91-0.18,1.72-0.54,2.44c-0.36,0.72-0.85,1.33-1.48,1.84c-0.62,0.5-1.35,0.89-2.19,1.16
			c-0.84,0.27-1.74,0.4-2.7,0.4h-1.21c-0.96,0-1.86-0.13-2.7-0.4c-0.84-0.27-1.58-0.66-2.21-1.16s-1.13-1.12-1.49-1.84
			c-0.36-0.72-0.54-1.54-0.54-2.44v-0.23H438.61z M440.82,537.93c0,0.6,0.12,1.15,0.36,1.64s0.58,0.9,1,1.25
			c0.43,0.34,0.93,0.61,1.52,0.79s1.21,0.28,1.88,0.28h1.11c0.62,0,1.22-0.09,1.8-0.28c0.58-0.18,1.08-0.45,1.52-0.79
			c0.43-0.34,0.78-0.76,1.04-1.25s0.39-1.03,0.39-1.64v-0.28c0-1.21-0.43-2.17-1.29-2.88c-0.86-0.71-2.01-1.07-3.45-1.07h-1.11
			c-0.67,0-1.3,0.09-1.88,0.28c-0.59,0.18-1.09,0.45-1.52,0.79c-0.43,0.34-0.76,0.76-1,1.25s-0.36,1.03-0.36,1.64L440.82,537.93
			L440.82,537.93z M441.78,545.56h2.37v4.48h16.59v1.79h-18.96V545.56z M457.66,546.66v-14.43h2.22v13.42L457.66,546.66z"/>
	</g>
	<polyline class="st0" points="68,490.97 68,398.66 160.31,398.66 	"/>
	<polyline class="st0" points="501,501.03 501,593.34 408.69,593.34 	"/>
</g>
</svg>
