<?xml version="1.0" encoding="utf-8"?>
<!-- Generator: Adobe Illustrator 26.0.2, SVG Export Plug-In . SVG Version: 6.00 Build 0)  -->
<svg version="1.1" id="Layer_1" xmlns="http://www.w3.org/2000/svg" xmlns:xlink="http://www.w3.org/1999/xlink" x="0px" y="0px"
	 viewBox="0 0 1920 1080" style="enable-background:new 0 0 1920 1080;" xml:space="preserve">
<style type="text/css">
	.st0{fill:#FF8E00;}
</style>
<g>
	<g>
		<path class="st0" d="M1455.29,891.68c-29.42,0-53.35-23.93-53.35-53.35s23.93-53.35,53.35-53.35h181.35
			c29.42,0,53.35,23.93,53.35,53.35s-23.93,53.35-53.35,53.35H1455.29z"/>
		<g>
			<path d="M1636.64,785.99c28.86,0,52.35,23.48,52.35,52.35c0,28.86-23.48,52.35-52.35,52.35h-181.35
				c-28.86,0-52.35-23.48-52.35-52.35c0-28.86,23.48-52.35,52.35-52.35H1636.64 M1636.64,783.99h-181.35
				c-29.89,0-54.35,24.46-54.35,54.35l0,0c0,29.89,24.46,54.35,54.35,54.35h181.35c29.89,0,54.35-24.46,54.35-54.35l0,0
				C1690.99,808.44,1666.53,783.99,1636.64,783.99L1636.64,783.99z"/>
		</g>
	</g>
	<g>
		<path d="M1461.58,826.94h8.51l2.04-5.64h5l-2.04,5.64h7.3l2.04-5.64h5l-2.04,5.64h5v4.31h-6.51l-2.12,5.87h7.11v4.31h-8.63
			l-2.27,6.36h-5l2.27-6.36h-7.3l-2.27,6.36h-5l2.27-6.36h-4.88v-4.31h6.4l2.12-5.87h-7V826.94z M1471.46,837.12h7.3l2.12-5.87h-7.3
			L1471.46,837.12z"/>
		<path d="M1501.73,847.41h-5.15v-27.74h5.15v10.29c0.91-1.08,2.13-1.95,3.67-2.59s3.38-0.97,5.52-0.97h0.95
			c3.83,0,6.83,0.85,8.99,2.54s3.24,4.15,3.24,7.38v11.09h-5.18v-11.05c0-1.82-0.59-3.22-1.78-4.2c-1.19-0.98-2.9-1.48-5.15-1.48
			h-1.06c-1.94,0-3.66,0.4-5.15,1.19s-2.84,1.91-4.05,3.35L1501.73,847.41L1501.73,847.41z"/>
		<path d="M1556.26,849.65v-3.14h-7.23v-4.05h7.23v-3.33l-8.19,1.55h-5.13v8.55h-5.68v-8.55h-9.23v-3.97h20.02l8.21-1.7V819.8h5.3
			v28.08L1556.26,849.65z M1541.54,819.49c1.92,0,3.58,0.19,5,0.57c1.41,0.38,2.59,0.9,3.52,1.57s1.63,1.47,2.08,2.4
			c0.45,0.93,0.68,1.97,0.68,3.1v0.38c0,5.07-3.76,7.61-11.28,7.61h-0.91c-3.76,0-6.58-0.64-8.48-1.93
			c-1.89-1.29-2.84-3.18-2.84-5.68v-0.38c0-1.14,0.23-2.17,0.68-3.1c0.45-0.93,1.15-1.73,2.08-2.4c0.93-0.67,2.11-1.19,3.54-1.57
			c1.42-0.38,3.1-0.57,5.01-0.57H1541.54z M1541.31,830.92c0.91,0,1.75-0.05,2.52-0.15c0.77-0.1,1.43-0.28,1.99-0.55
			c0.55-0.27,0.99-0.62,1.31-1.08c0.32-0.45,0.47-1.02,0.47-1.7v-0.23c0-0.68-0.16-1.25-0.47-1.7c-0.32-0.45-0.75-0.81-1.31-1.08
			s-1.22-0.45-1.99-0.57c-0.77-0.11-1.61-0.17-2.52-0.17h-0.49c-1.84,0-3.35,0.26-4.52,0.78s-1.76,1.43-1.76,2.74v0.23
			c0,0.68,0.16,1.25,0.47,1.7c0.32,0.45,0.75,0.81,1.31,1.08c0.55,0.27,1.22,0.45,1.99,0.55s1.61,0.15,2.52,0.15H1541.31z"/>
		<path d="M1594.07,837.58v-0.91h-7v-2.95h7v-1.78l-9.17,1.51h-5.21v3.48h-5.68v-3.48h-8.14v-3.52h19.26l8.93-1.7v-8.44h5.34v16.01
			L1594.07,837.58z M1567.35,824.03c0-1.69,0.89-2.96,2.67-3.8c1.78-0.84,4.62-1.27,8.53-1.27h1.14c3.91,0,6.75,0.44,8.51,1.31
			c1.77,0.87,2.65,2.13,2.65,3.77c0,1.69-0.91,2.95-2.72,3.76c-1.82,0.82-4.63,1.23-8.44,1.23h-1.14c-3.81,0-6.63-0.41-8.46-1.23
			C1568.26,826.97,1567.35,825.72,1567.35,824.03z M1593.99,842.27v-1.02h-22.89v-3.29h28.19v7.19h-22.89v1.06h24.14v3.29h-29.44
			v-7.23H1593.99z M1572.65,824.03c0,0.2,0.09,0.39,0.26,0.55c0.18,0.16,0.5,0.3,0.96,0.42c0.47,0.11,1.1,0.2,1.91,0.27
			c0.81,0.06,1.83,0.1,3.07,0.1h0.53c2.3,0,3.9-0.11,4.81-0.34c0.91-0.23,1.36-0.55,1.36-0.98c0-0.2-0.08-0.38-0.23-0.55
			c-0.15-0.16-0.45-0.3-0.91-0.42c-0.45-0.11-1.08-0.2-1.89-0.26s-1.85-0.1-3.14-0.1h-0.53c-1.21,0-2.21,0.03-3.01,0.1
			s-1.43,0.15-1.91,0.26s-0.81,0.25-1,0.42C1572.74,823.64,1572.65,823.83,1572.65,824.03z"/>
		<path d="M1608.41,826.6l9.35,15.44l9.23-15.44h5.83l-12.9,21h-4.24l-13.17-21H1608.41z"/>
	</g>
</g>
</svg>
