<?xml version="1.0" encoding="utf-8"?>
<!-- Generator: Adobe Illustrator 26.0.2, SVG Export Plug-In . SVG Version: 6.00 Build 0)  -->
<svg version="1.1" id="Layer_1" xmlns="http://www.w3.org/2000/svg" xmlns:xlink="http://www.w3.org/1999/xlink" x="0px" y="0px"
	 viewBox="0 0 1920 1080" style="enable-background:new 0 0 1920 1080;" xml:space="preserve">
<style type="text/css">
	.st0{fill:#FF8E00;}
</style>
<g>
	<g>
		<path class="st0" d="M894.99,718.83c-29.42,0-53.35-23.93-53.35-53.35s23.93-53.35,53.35-53.35h130.64
			c29.42,0,53.35,23.93,53.35,53.35s-23.93,53.35-53.35,53.35H894.99z"/>
		<g>
			<path d="M1025.63,613.14c28.86,0,52.35,23.48,52.35,52.35c0,28.86-23.48,52.35-52.35,52.35H894.99
				c-28.86,0-52.35-23.48-52.35-52.35c0-28.86,23.48-52.35,52.35-52.35H1025.63 M1025.63,611.14H894.99
				c-29.89,0-54.35,24.46-54.35,54.35l0,0c0,29.89,24.46,54.35,54.35,54.35h130.64c29.89,0,54.35-24.46,54.35-54.35l0,0
				C1079.97,635.6,1055.52,611.14,1025.63,611.14L1025.63,611.14z"/>
		</g>
	</g>
	<g>
		<path d="M902.41,654.1h8.51l2.04-5.64h5l-2.04,5.64h7.3l2.04-5.64h5l-2.04,5.64h5v4.31h-6.51l-2.12,5.87h7.11v4.31h-8.63
			l-2.27,6.36h-5l2.27-6.36h-7.3l-2.27,6.36h-5l2.27-6.36h-4.88v-4.31h6.4l2.12-5.87h-7V654.1z M912.29,664.28h7.3l2.12-5.87h-7.3
			L912.29,664.28z"/>
		<path d="M941.92,674.76l11.77-21.65H935.9v-4.31h25.35v1.02l-13.55,24.94H941.92z"/>
		<path d="M988.92,663.1c0,3.78-1.05,6.67-3.14,8.67c-2.09,1.99-5.06,2.99-8.89,2.99h-1.13c-3.84,0-6.8-1-8.89-2.99
			s-3.14-4.88-3.14-8.67v-2.8c0-3.78,1.05-6.67,3.14-8.67c2.09-1.99,5.06-2.99,8.89-2.99h1.13c3.84,0,6.8,1,8.89,2.99
			s3.14,4.88,3.14,8.67V663.1z M968.94,663.03c0,2.52,0.61,4.39,1.82,5.6c1.21,1.21,2.89,1.82,5.03,1.82h1.06
			c2.14,0,3.82-0.61,5.03-1.82s1.82-3.08,1.82-5.6v-2.65c0-2.52-0.61-4.39-1.82-5.6c-1.21-1.21-2.89-1.82-5.03-1.82h-1.06
			c-2.15,0-3.82,0.61-5.03,1.82s-1.82,3.08-1.82,5.6V663.03z"/>
		<path d="M1018.62,663.1c0,3.78-1.05,6.67-3.14,8.67c-2.09,1.99-5.06,2.99-8.89,2.99h-1.13c-3.84,0-6.8-1-8.89-2.99
			s-3.14-4.88-3.14-8.67v-2.8c0-3.78,1.05-6.67,3.14-8.67c2.09-1.99,5.06-2.99,8.89-2.99h1.13c3.84,0,6.8,1,8.89,2.99
			s3.14,4.88,3.14,8.67V663.1z M998.64,663.03c0,2.52,0.61,4.39,1.82,5.6c1.21,1.21,2.89,1.82,5.03,1.82h1.06
			c2.14,0,3.82-0.61,5.03-1.82s1.82-3.08,1.82-5.6v-2.65c0-2.52-0.61-4.39-1.82-5.6c-1.21-1.21-2.89-1.82-5.03-1.82h-1.06
			c-2.15,0-3.82,0.61-5.03,1.82s-1.82,3.08-1.82,5.6V663.03z"/>
	</g>
</g>
</svg>
