<?xml version="1.0" encoding="utf-8"?>
<!-- Generator: Adobe Illustrator 26.0.2, SVG Export Plug-In . SVG Version: 6.00 Build 0)  -->
<svg version="1.1" id="Layer_1" xmlns="http://www.w3.org/2000/svg" xmlns:xlink="http://www.w3.org/1999/xlink" x="0px" y="0px"
	 viewBox="0 0 1920 1080" style="enable-background:new 0 0 1920 1080;" xml:space="preserve">
<style type="text/css">
	.st0{fill:#00A0FF;}
	.st1{font-family:'YdestreetB';}
	.st2{font-size:38px;}
</style>
<g>
	<path class="st0" d="M89,809.83c-24.35,0-44.15-23.93-44.15-53.35s19.8-53.35,44.15-53.35h142.1c24.35,0,44.15,23.93,44.15,53.35
		s-19.81,53.35-44.15,53.35L89,809.83L89,809.83z"/>
	<g>
		<path d="M231.1,704.14c23.89,0,43.33,23.48,43.33,52.35c0,28.86-19.43,52.35-43.33,52.35H89c-23.89,0-43.33-23.48-43.33-52.35
			c0-28.86,19.43-52.35,43.33-52.35H231.1 M231.1,702.14H89c-24.74,0-44.98,24.46-44.98,54.35l0,0c0,29.89,20.24,54.35,44.98,54.35
			h142.1c24.74,0,44.98-24.46,44.98-54.35l0,0C276.08,726.59,255.84,702.14,231.1,702.14L231.1,702.14z"/>
	</g>
</g>
<text transform="matrix(1 0 0 1 99.2516 766.016)" class="st1 st2">#꾸꾸</text>
</svg>
