<?xml version="1.0" encoding="utf-8"?>
<!-- Generator: Adobe Illustrator 26.0.2, SVG Export Plug-In . SVG Version: 6.00 Build 0)  -->
<svg version="1.1" id="Layer_1" xmlns="http://www.w3.org/2000/svg" xmlns:xlink="http://www.w3.org/1999/xlink" x="0px" y="0px"
	 viewBox="0 0 1920 1080" style="enable-background:new 0 0 1920 1080;" xml:space="preserve">
<style type="text/css">
	.st0{fill:#00A0FF;stroke:#000000;stroke-width:2;stroke-miterlimit:10;}
	.st1{fill:#FFE330;stroke:#000000;stroke-width:2;stroke-miterlimit:10;}
	.st2{fill:none;stroke:#000000;stroke-width:2;stroke-miterlimit:10;}
</style>
<g>
	<rect x="89.87" y="990.64" class="st0" width="88.72" height="88.72"/>
	<rect x="267.03" y="990.64" class="st0" width="88.72" height="88.72"/>
	<rect x="178.74" y="990.64" class="st1" width="88.72" height="88.72"/>
	<g>
		<rect x="205.36" y="1011.88" width="10.03" height="10.03"/>
		<rect x="231.44" y="1011.88" width="10.03" height="10.03"/>
		<g>
			<polygon points="252.52,1057.03 194.32,1057.03 194.32,1033.95 200.34,1033.95 200.34,1051.01 246.5,1051.01 246.5,1033.95 
				252.52,1033.95 			"/>
		</g>
	</g>
	<rect x="1" y="990.64" class="st1" width="88.72" height="88.72"/>
	<g>
		<rect x="27.62" y="1011.88" width="10.03" height="10.03"/>
		<rect x="53.7" y="1011.88" width="10.03" height="10.03"/>
		<g>
			<polygon points="74.77,1057.03 16.58,1057.03 16.58,1033.95 22.6,1033.95 22.6,1051.01 68.75,1051.01 68.75,1033.95 
				74.77,1033.95 			"/>
		</g>
	</g>
	<polyline class="st2" points="105.72,1040.76 162.86,1040.76 141.56,1019.47 	"/>
	<polyline class="st2" points="315.4,1063.82 315.4,1006.68 294.11,1027.98 	"/>
	<rect x="444.87" y="990.64" class="st0" width="88.72" height="88.72"/>
	<rect x="622.03" y="990.64" class="st0" width="88.72" height="88.72"/>
	<rect x="533.74" y="990.64" class="st1" width="88.72" height="88.72"/>
	<g>
		<rect x="560.36" y="1011.88" width="10.03" height="10.03"/>
		<rect x="586.44" y="1011.88" width="10.03" height="10.03"/>
		<g>
			<polygon points="607.52,1057.03 549.32,1057.03 549.32,1033.95 555.34,1033.95 555.34,1051.01 601.5,1051.01 601.5,1033.95 
				607.52,1033.95 			"/>
		</g>
	</g>
	<rect x="356" y="990.64" class="st1" width="88.72" height="88.72"/>
	<g>
		<rect x="382.62" y="1011.88" width="10.03" height="10.03"/>
		<rect x="408.7" y="1011.88" width="10.03" height="10.03"/>
		<g>
			<polygon points="429.77,1057.03 371.58,1057.03 371.58,1033.95 377.6,1033.95 377.6,1051.01 423.75,1051.01 423.75,1033.95 
				429.77,1033.95 			"/>
		</g>
	</g>
	<polyline class="st2" points="460.72,1040.76 517.86,1040.76 496.56,1019.47 	"/>
	<polyline class="st2" points="670.4,1063.82 670.4,1006.68 649.11,1027.98 	"/>
	<rect x="799.87" y="990.64" class="st0" width="88.72" height="88.72"/>
	<rect x="977.03" y="990.64" class="st0" width="88.72" height="88.72"/>
	<rect x="888.74" y="990.64" class="st1" width="88.72" height="88.72"/>
	<g>
		<rect x="915.36" y="1011.88" width="10.03" height="10.03"/>
		<rect x="941.44" y="1011.88" width="10.03" height="10.03"/>
		<g>
			<polygon points="962.52,1057.03 904.32,1057.03 904.32,1033.95 910.34,1033.95 910.34,1051.01 956.5,1051.01 956.5,1033.95 
				962.52,1033.95 			"/>
		</g>
	</g>
	<rect x="711" y="990.64" class="st1" width="88.72" height="88.72"/>
	<g>
		<rect x="737.62" y="1011.88" width="10.03" height="10.03"/>
		<rect x="763.7" y="1011.88" width="10.03" height="10.03"/>
		<g>
			<polygon points="784.77,1057.03 726.58,1057.03 726.58,1033.95 732.6,1033.95 732.6,1051.01 778.75,1051.01 778.75,1033.95 
				784.77,1033.95 			"/>
		</g>
	</g>
	<polyline class="st2" points="815.72,1040.76 872.86,1040.76 851.56,1019.47 	"/>
	<polyline class="st2" points="1025.4,1063.82 1025.4,1006.68 1004.11,1027.98 	"/>
	<rect x="1154.87" y="990.64" class="st0" width="88.72" height="88.72"/>
	<rect x="1332.03" y="990.64" class="st0" width="88.72" height="88.72"/>
	<rect x="1243.74" y="990.64" class="st1" width="88.72" height="88.72"/>
	<g>
		<rect x="1270.36" y="1011.88" width="10.03" height="10.03"/>
		<rect x="1296.44" y="1011.88" width="10.03" height="10.03"/>
		<g>
			<polygon points="1317.52,1057.03 1259.32,1057.03 1259.32,1033.95 1265.34,1033.95 1265.34,1051.01 1311.5,1051.01 
				1311.5,1033.95 1317.52,1033.95 			"/>
		</g>
	</g>
	<rect x="1066" y="990.64" class="st1" width="88.72" height="88.72"/>
	<g>
		<rect x="1092.62" y="1011.88" width="10.03" height="10.03"/>
		<rect x="1118.7" y="1011.88" width="10.03" height="10.03"/>
		<g>
			<polygon points="1139.77,1057.03 1081.58,1057.03 1081.58,1033.95 1087.6,1033.95 1087.6,1051.01 1133.75,1051.01 
				1133.75,1033.95 1139.77,1033.95 			"/>
		</g>
	</g>
	<polyline class="st2" points="1170.72,1040.76 1227.86,1040.76 1206.56,1019.47 	"/>
	<polyline class="st2" points="1380.4,1063.82 1380.4,1006.68 1359.11,1027.98 	"/>
	<rect x="1509.87" y="990.64" class="st0" width="88.72" height="88.72"/>
	<rect x="1687.03" y="990.64" class="st0" width="88.72" height="88.72"/>
	<rect x="1598.74" y="990.64" class="st1" width="88.72" height="88.72"/>
	<g>
		<rect x="1625.36" y="1011.88" width="10.03" height="10.03"/>
		<rect x="1651.44" y="1011.88" width="10.03" height="10.03"/>
		<g>
			<polygon points="1672.52,1057.03 1614.32,1057.03 1614.32,1033.95 1620.34,1033.95 1620.34,1051.01 1666.5,1051.01 
				1666.5,1033.95 1672.52,1033.95 			"/>
		</g>
	</g>
	<rect x="1421" y="990.64" class="st1" width="88.72" height="88.72"/>
	<g>
		<rect x="1447.62" y="1011.88" width="10.03" height="10.03"/>
		<rect x="1473.7" y="1011.88" width="10.03" height="10.03"/>
		<g>
			<polygon points="1494.77,1057.03 1436.58,1057.03 1436.58,1033.95 1442.6,1033.95 1442.6,1051.01 1488.75,1051.01 
				1488.75,1033.95 1494.77,1033.95 			"/>
		</g>
	</g>
	<polyline class="st2" points="1525.72,1040.76 1582.86,1040.76 1561.56,1019.47 	"/>
	<polyline class="st2" points="1735.4,1063.82 1735.4,1006.68 1714.11,1027.98 	"/>
	<rect x="1864.87" y="990.64" class="st0" width="88.72" height="88.72"/>
	<rect x="2042.03" y="990.64" class="st0" width="88.72" height="88.72"/>
	<rect x="1953.74" y="990.64" class="st1" width="88.72" height="88.72"/>
	<g>
		<rect x="1980.36" y="1011.88" width="10.03" height="10.03"/>
		<rect x="2006.44" y="1011.88" width="10.03" height="10.03"/>
		<g>
			<polygon points="2027.52,1057.03 1969.32,1057.03 1969.32,1033.95 1975.34,1033.95 1975.34,1051.01 2021.5,1051.01 
				2021.5,1033.95 2027.52,1033.95 			"/>
		</g>
	</g>
	<rect x="1776" y="990.64" class="st1" width="88.72" height="88.72"/>
	<g>
		<rect x="1802.62" y="1011.88" width="10.03" height="10.03"/>
		<rect x="1828.7" y="1011.88" width="10.03" height="10.03"/>
		<g>
			<polygon points="1849.77,1057.03 1791.58,1057.03 1791.58,1033.95 1797.6,1033.95 1797.6,1051.01 1843.75,1051.01 
				1843.75,1033.95 1849.77,1033.95 			"/>
		</g>
	</g>
	<polyline class="st2" points="1880.72,1040.76 1937.86,1040.76 1916.56,1019.47 	"/>
	<polyline class="st2" points="2090.4,1063.82 2090.4,1006.68 2069.11,1027.98 	"/>
</g>
<g>
	<rect x="2219.62" y="990.64" class="st0" width="88.72" height="88.72"/>
	<rect x="2396.78" y="990.64" class="st0" width="88.72" height="88.72"/>
	<rect x="2308.49" y="990.64" class="st1" width="88.72" height="88.72"/>
	<g>
		<rect x="2335.11" y="1011.88" width="10.03" height="10.03"/>
		<rect x="2361.19" y="1011.88" width="10.03" height="10.03"/>
		<g>
			<polygon points="2382.27,1057.03 2324.07,1057.03 2324.07,1033.95 2330.09,1033.95 2330.09,1051.01 2376.25,1051.01 
				2376.25,1033.95 2382.27,1033.95 			"/>
		</g>
	</g>
	<rect x="2130.75" y="990.64" class="st1" width="88.72" height="88.72"/>
	<g>
		<rect x="2157.37" y="1011.88" width="10.03" height="10.03"/>
		<rect x="2183.45" y="1011.88" width="10.03" height="10.03"/>
		<g>
			<polygon points="2204.52,1057.03 2146.33,1057.03 2146.33,1033.95 2152.35,1033.95 2152.35,1051.01 2198.5,1051.01 
				2198.5,1033.95 2204.52,1033.95 			"/>
		</g>
	</g>
	<polyline class="st2" points="2235.47,1040.76 2292.61,1040.76 2271.31,1019.47 	"/>
	<polyline class="st2" points="2445.15,1063.82 2445.15,1006.68 2423.86,1027.98 	"/>
	<rect x="2574.62" y="990.64" class="st0" width="88.72" height="88.72"/>
	<rect x="2751.78" y="990.64" class="st0" width="88.72" height="88.72"/>
	<rect x="2663.49" y="990.64" class="st1" width="88.72" height="88.72"/>
	<g>
		<rect x="2690.11" y="1011.88" width="10.03" height="10.03"/>
		<rect x="2716.19" y="1011.88" width="10.03" height="10.03"/>
		<g>
			<polygon points="2737.27,1057.03 2679.07,1057.03 2679.07,1033.95 2685.09,1033.95 2685.09,1051.01 2731.25,1051.01 
				2731.25,1033.95 2737.27,1033.95 			"/>
		</g>
	</g>
	<rect x="2485.75" y="990.64" class="st1" width="88.72" height="88.72"/>
	<g>
		<rect x="2512.37" y="1011.88" width="10.03" height="10.03"/>
		<rect x="2538.45" y="1011.88" width="10.03" height="10.03"/>
		<g>
			<polygon points="2559.52,1057.03 2501.33,1057.03 2501.33,1033.95 2507.35,1033.95 2507.35,1051.01 2553.5,1051.01 
				2553.5,1033.95 2559.52,1033.95 			"/>
		</g>
	</g>
	<polyline class="st2" points="2590.47,1040.76 2647.61,1040.76 2626.31,1019.47 	"/>
	<polyline class="st2" points="2800.15,1063.82 2800.15,1006.68 2778.86,1027.98 	"/>
	<rect x="2929.62" y="990.64" class="st0" width="88.72" height="88.72"/>
	<rect x="3106.78" y="990.64" class="st0" width="88.72" height="88.72"/>
	<rect x="3018.49" y="990.64" class="st1" width="88.72" height="88.72"/>
	<g>
		<rect x="3045.11" y="1011.88" width="10.03" height="10.03"/>
		<rect x="3071.19" y="1011.88" width="10.03" height="10.03"/>
		<g>
			<polygon points="3092.27,1057.03 3034.07,1057.03 3034.07,1033.95 3040.09,1033.95 3040.09,1051.01 3086.25,1051.01 
				3086.25,1033.95 3092.27,1033.95 			"/>
		</g>
	</g>
	<rect x="2840.75" y="990.64" class="st1" width="88.72" height="88.72"/>
	<g>
		<rect x="2867.37" y="1011.88" width="10.03" height="10.03"/>
		<rect x="2893.45" y="1011.88" width="10.03" height="10.03"/>
		<g>
			<polygon points="2914.52,1057.03 2856.33,1057.03 2856.33,1033.95 2862.35,1033.95 2862.35,1051.01 2908.5,1051.01 
				2908.5,1033.95 2914.52,1033.95 			"/>
		</g>
	</g>
	<polyline class="st2" points="2945.47,1040.76 3002.61,1040.76 2981.31,1019.47 	"/>
	<polyline class="st2" points="3155.15,1063.82 3155.15,1006.68 3133.86,1027.98 	"/>
	<rect x="3284.62" y="990.64" class="st0" width="88.72" height="88.72"/>
	<rect x="3461.78" y="990.64" class="st0" width="88.72" height="88.72"/>
	<rect x="3373.49" y="990.64" class="st1" width="88.72" height="88.72"/>
	<g>
		<rect x="3400.11" y="1011.88" width="10.03" height="10.03"/>
		<rect x="3426.19" y="1011.88" width="10.03" height="10.03"/>
		<g>
			<polygon points="3447.27,1057.03 3389.07,1057.03 3389.07,1033.95 3395.09,1033.95 3395.09,1051.01 3441.25,1051.01 
				3441.25,1033.95 3447.27,1033.95 			"/>
		</g>
	</g>
	<rect x="3195.75" y="990.64" class="st1" width="88.72" height="88.72"/>
	<g>
		<rect x="3222.37" y="1011.88" width="10.03" height="10.03"/>
		<rect x="3248.45" y="1011.88" width="10.03" height="10.03"/>
		<g>
			<polygon points="3269.52,1057.03 3211.33,1057.03 3211.33,1033.95 3217.35,1033.95 3217.35,1051.01 3263.5,1051.01 
				3263.5,1033.95 3269.52,1033.95 			"/>
		</g>
	</g>
	<polyline class="st2" points="3300.47,1040.76 3357.61,1040.76 3336.31,1019.47 	"/>
	<polyline class="st2" points="3510.15,1063.82 3510.15,1006.68 3488.86,1027.98 	"/>
	<rect x="3639.62" y="990.64" class="st0" width="88.72" height="88.72"/>
	<rect x="3816.78" y="990.64" class="st0" width="88.72" height="88.72"/>
	<rect x="3728.49" y="990.64" class="st1" width="88.72" height="88.72"/>
	<g>
		<rect x="3755.11" y="1011.88" width="10.03" height="10.03"/>
		<rect x="3781.19" y="1011.88" width="10.03" height="10.03"/>
		<g>
			<polygon points="3802.27,1057.03 3744.07,1057.03 3744.07,1033.95 3750.09,1033.95 3750.09,1051.01 3796.25,1051.01 
				3796.25,1033.95 3802.27,1033.95 			"/>
		</g>
	</g>
	<rect x="3550.75" y="990.64" class="st1" width="88.72" height="88.72"/>
	<g>
		<rect x="3577.37" y="1011.88" width="10.03" height="10.03"/>
		<rect x="3603.45" y="1011.88" width="10.03" height="10.03"/>
		<g>
			<polygon points="3624.52,1057.03 3566.33,1057.03 3566.33,1033.95 3572.35,1033.95 3572.35,1051.01 3618.5,1051.01 
				3618.5,1033.95 3624.52,1033.95 			"/>
		</g>
	</g>
	<polyline class="st2" points="3655.47,1040.76 3712.61,1040.76 3691.31,1019.47 	"/>
	<polyline class="st2" points="3865.15,1063.82 3865.15,1006.68 3843.86,1027.98 	"/>
	<rect x="3994.62" y="990.64" class="st0" width="88.72" height="88.72"/>
	<rect x="4171.78" y="990.64" class="st0" width="88.72" height="88.72"/>
	<rect x="4083.49" y="990.64" class="st1" width="88.72" height="88.72"/>
	<g>
		<rect x="4110.11" y="1011.88" width="10.03" height="10.03"/>
		<rect x="4136.19" y="1011.88" width="10.03" height="10.03"/>
		<g>
			<polygon points="4157.27,1057.03 4099.07,1057.03 4099.07,1033.95 4105.09,1033.95 4105.09,1051.01 4151.25,1051.01 
				4151.25,1033.95 4157.27,1033.95 			"/>
		</g>
	</g>
	<rect x="3905.75" y="990.64" class="st1" width="88.72" height="88.72"/>
	<g>
		<rect x="3932.37" y="1011.88" width="10.03" height="10.03"/>
		<rect x="3958.45" y="1011.88" width="10.03" height="10.03"/>
		<g>
			<polygon points="3979.52,1057.03 3921.33,1057.03 3921.33,1033.95 3927.35,1033.95 3927.35,1051.01 3973.5,1051.01 
				3973.5,1033.95 3979.52,1033.95 			"/>
		</g>
	</g>
	<polyline class="st2" points="4010.47,1040.76 4067.61,1040.76 4046.31,1019.47 	"/>
	<polyline class="st2" points="4220.15,1063.82 4220.15,1006.68 4198.86,1027.98 	"/>
</g>
</svg>
